<svg id="icono_cookies" xmlns="http://www.w3.org/2000/svg" width="115.924" height="106.605" viewBox="0 0 115.924 106.605">
  <path id="Trazado_806" data-name="Trazado 806" d="M198.368,546.9c1.027-2.021,2.408-3.644,4.753-4.139a7.605,7.605,0,0,1,1.568-.163q46.669-.014,93.335-.006A6.332,6.332,0,0,1,304.532,549q.036,26.714.012,53.424c0,1.3-.677,2.094-1.713,2.082s-1.7-.807-1.7-2.109q0-18.034,0-36.068V564.9H201.544v76.741c0,2.858,1.1,3.952,3.982,3.952q31.64,0,63.28,0a6.563,6.563,0,0,1,1.245.027,1.594,1.594,0,0,1,1.408,1.765A1.542,1.542,0,0,1,270,648.98a9.494,9.494,0,0,1-1.245.027c-20.906,0-41.812-.045-62.715.045-3.559.015-6.146-1.1-7.675-4.369ZM301.133,561.38c0-4.01.006-7.9,0-11.787,0-2.4-1.212-3.6-3.647-3.6q-46.148,0-92.3,0-3.63,0-3.641,3.617-.018,5.443,0,10.886c0,.287.048.577.076.885Z" transform="translate(-198.368 -542.587)" fill="#2e2e2d"/>
  <path id="Trazado_807" data-name="Trazado 807" d="M265.593,586.367c.568,0,1.015,0,1.462,0,7.294.012,14.591-.063,21.882.067a9.747,9.747,0,0,1,9.285,9.615c.027,7.067.012,14.138.006,21.208,0,5.653-3.732,10.047-9.34,10.225-8.191.26-16.4.272-24.6.009-5.756-.184-9.5-4.526-9.548-10.307-.03-3.7-.006-7.406-.006-11.273-.347.2-.6.317-.816.477-17.788,12.974-42.271,3.84-46.936-17.67a29.508,29.508,0,0,1,23.393-35.2q.779-.149,1.562-.245a3.016,3.016,0,0,1,3.629,2.133,11.518,11.518,0,0,0,9.469,7.777,15.582,15.582,0,0,0,3.164.061,3.5,3.5,0,0,1,3.251,1.662,6.5,6.5,0,0,0,7.457,2.9,3.04,3.04,0,0,1,3.852,1.895A28.848,28.848,0,0,1,265.6,585.31C265.566,585.605,265.593,585.908,265.593,586.367Zm-33.318,22.2a1.624,1.624,0,0,0,.3.1,26,26,0,0,0,21.308-6.723,2.4,2.4,0,0,0,.876-2.058c-.112-3.641-.193-7.291,2.574-10.176-4.974-4.324-3.617-12.793,3.949-14.509l-1.58-3.976c-4.532.837-8.092-.378-10.832-3.895a1.74,1.74,0,0,0-1.263-.577,15.1,15.1,0,0,1-10.258-3.173,15.371,15.371,0,0,1-4.995-6.826,26.094,26.094,0,0,0-11.2,47.393,6.469,6.469,0,0,1,2.985-4.847,5.983,5.983,0,0,1,5.747-.4C233.535,600.481,234.426,604.122,232.275,608.566Zm44.284,15.549H287.78c.076,0,.151,0,.227,0a6.544,6.544,0,0,0,6.817-6.753q.045-10.374,0-20.752a6.566,6.566,0,0,0-6.9-6.8q-11.394-.009-22.788,0a6.458,6.458,0,0,0-6.874,6.874q-.023,10.261,0,20.525c.009,4.248,2.674,6.886,6.956,6.9C269,624.124,272.779,624.115,276.558,624.115Zm-14.567-45.344c-2.257.4-3.732,1.68-4.082,3.581a4.478,4.478,0,0,0,1.7,4.629c.71.556,2.236.151,2.381-.692A24.5,24.5,0,0,0,261.992,578.771ZM224.7,604.526a2.689,2.689,0,0,0,2.665,2.768,2.81,2.81,0,0,0,2.777-2.71,2.771,2.771,0,0,0-2.719-2.75A2.647,2.647,0,0,0,224.7,604.526Z" transform="translate(-182.314 -521.076)" fill="#2e2e2d"/>
  <path id="Trazado_808" data-name="Trazado 808" d="M225.517,545.681q10.6,0,21.2,0a6.684,6.684,0,0,1,1.13.045,1.711,1.711,0,0,1,1.547,1.689,1.732,1.732,0,0,1-1.6,1.753,6.023,6.023,0,0,1-.906.03q-21.429,0-42.857-.006c-.447,0-1.021.051-1.311-.19a2.575,2.575,0,0,1-1.036-1.532,2.379,2.379,0,0,1,.985-1.559,2.738,2.738,0,0,1,1.529-.224Q214.86,545.672,225.517,545.681Z" transform="translate(-191.661 -536.334)" fill="#2e2e2d"/>
  <path id="Trazado_809" data-name="Trazado 809" d="M230.637,547.451a1.732,1.732,0,0,1-1.719,1.728,1.747,1.747,0,0,1,.036-3.493A1.739,1.739,0,0,1,230.637,547.451Z" transform="translate(-140.075 -536.324)" fill="#2e2e2d"/>
  <path id="Trazado_810" data-name="Trazado 810" d="M231.231,545.688a1.745,1.745,0,0,1-.112,3.487,1.744,1.744,0,0,1,.112-3.487Z" transform="translate(-135.527 -536.322)" fill="#2e2e2d"/>
  <path id="Trazado_811" data-name="Trazado 811" d="M228.406,547.529a1.754,1.754,0,0,1-1.81,1.644,1.745,1.745,0,0,1,.2-3.484A1.774,1.774,0,0,1,228.406,547.529Z" transform="translate(-144.622 -536.324)" fill="#2e2e2d"/>
  <path id="Trazado_812" data-name="Trazado 812" d="M222.343,574.056a7.871,7.871,0,0,1-7.907-7.919,7.952,7.952,0,0,1,7.947-7.917,8.044,8.044,0,0,1,7.889,7.9A7.936,7.936,0,0,1,222.343,574.056Zm4.411-7.862a4.339,4.339,0,0,0-4.424-4.454,4.462,4.462,0,0,0-4.478,4.451,4.582,4.582,0,0,0,4.418,4.454A4.477,4.477,0,0,0,226.755,566.194Z" transform="translate(-165.886 -510.986)" fill="#2e2e2d"/>
  <path id="Trazado_813" data-name="Trazado 813" d="M221.518,565.385a6.371,6.371,0,0,1-6.409,6.4,6.4,6.4,0,1,1,6.409-6.4Zm-6.384-2.88a2.876,2.876,0,1,0,2.967,2.889A2.9,2.9,0,0,0,215.133,562.505Z" transform="translate(-177.267 -509.458)" fill="#2e2e2d"/>
  <path id="Trazado_814" data-name="Trazado 814" d="M222.418,575.622a5.272,5.272,0,0,1-5.233-5.278,5.351,5.351,0,0,1,5.409-5.372,5.442,5.442,0,0,1,5.266,5.321A5.348,5.348,0,0,1,222.418,575.622Zm1.919-5.273a1.8,1.8,0,0,0-1.816-1.876,1.824,1.824,0,0,0-1.867,1.834,1.876,1.876,0,0,0,1.828,1.9A1.845,1.845,0,0,0,224.337,570.35Z" transform="translate(-160.329 -497.339)" fill="#2e2e2d"/>
  <path id="Trazado_815" data-name="Trazado 815" d="M238.74,566.473c2.345,0,4.686-.009,7.028,0a2.484,2.484,0,0,1,2.777,2.481,4,4,0,0,0,2.387,3.562,2.488,2.488,0,0,1,1.456,2.692,22.118,22.118,0,0,1-5.62,13.428,78.792,78.792,0,0,1-6.508,6.1,2.126,2.126,0,0,1-2.97.036c-5.738-4.206-10.134-9.358-11.72-16.495a25.458,25.458,0,0,1-.393-3.363,2.3,2.3,0,0,1,1.469-2.441,3.753,3.753,0,0,0,2.251-3.145c.332-2.3,1.052-2.858,3.384-2.858Zm-10.158,8.913c.127.8.2,1.517.36,2.212,1.275,5.75,4.777,9.98,9.249,13.561a.819.819,0,0,0,1.266-.112,73.189,73.189,0,0,0,5.17-5.218,17.745,17.745,0,0,0,4.146-9.624,1.536,1.536,0,0,0-.5-1.194,7.559,7.559,0,0,1-2.934-4.3,1.226,1.226,0,0,0-.864-.74q-5.72-.073-11.445,0a1.091,1.091,0,0,0-.8.634A7.351,7.351,0,0,1,228.581,575.387Z" transform="translate(-144.199 -494.308)" fill="#2e2e2d"/>
  <path id="Trazado_816" data-name="Trazado 816" d="M232.377,575.985c1.762-2.115,3.429-4.146,5.131-6.149,1-1.178,2.541-1.079,2.982.242a2.288,2.288,0,0,1-.3,1.843c-2.073,2.638-4.23,5.209-6.4,7.771a1.721,1.721,0,0,1-2.883-.006q-1.464-1.727-2.825-3.532A1.712,1.712,0,1,1,230.742,574C231.289,574.6,231.785,575.257,232.377,575.985Z" transform="translate(-139.126 -489.162)" fill="#2e2e2d"/>
</svg>
