<svg id="Iconos_Preguntas_frecuentes" data-name="Iconos_Preguntas frecuentes" xmlns="http://www.w3.org/2000/svg" width="106.302" height="106.316" viewBox="0 0 106.302 106.316">
  <path id="Trazado_817" data-name="Trazado 817" d="M165.144,541.065c1.582.323,3.195.538,4.74.983,11.954,3.447,19.535,11.236,22.021,23.4,2.273,11.129-1.232,20.646-9.575,28.343a2.731,2.731,0,0,0-1.022,2.285c.061,3.423.006,6.849.033,10.271a2.117,2.117,0,0,1-1.29,2.258,2.228,2.228,0,0,1-2.531-.679c-2.267-2.285-4.567-4.533-6.809-6.836a1.572,1.572,0,0,0-1.622-.471,45.745,45.745,0,0,1-20.123-.389,30.07,30.07,0,0,1-21.747-32.645c1.622-11.744,8.081-19.955,19.064-24.437a53.685,53.685,0,0,1,7.384-1.883c.231-.058.456-.134.685-.2ZM177.113,601.6c.046-.35.064-.42.064-.487,0-2.075.1-4.156-.024-6.222a4.161,4.161,0,0,1,1.743-3.7c8.154-7.034,11.157-15.955,8.574-26.335-2.449-9.848-8.993-16.079-18.784-18.805-3.879-1.077-7.88-.9-11.85-.812a25.978,25.978,0,0,0-25.343,29.989,25.383,25.383,0,0,0,9.52,16.326,24.805,24.805,0,0,0,15.267,5.586c4.348.1,8.717.371,12.967-.883a3.108,3.108,0,0,1,3.529.955C174.116,598.682,175.567,600.051,177.113,601.6Z" transform="translate(-86.281 -541.065)" fill="#2e2e2d"/>
  <path id="Trazado_818" data-name="Trazado 818" d="M113.568,565.607a33.4,33.4,0,0,1,2.1-5.549A13.753,13.753,0,0,1,128,552.966c6.882-.073,13.764-.021,20.646-.015,1.542,0,2.461.761,2.483,2.029.024,1.317-.907,2.115-2.5,2.115-6.709,0-13.417-.037-20.126.015-4.329.037-7.706,1.893-9.6,5.845a11.622,11.622,0,0,0-1.123,4.771c-.094,10.475-.07,20.956-.04,31.434a10.483,10.483,0,0,0,10.636,10.648q6.275.041,12.553-.012a3.152,3.152,0,0,1,2.656,1.235c1.439,1.673,3.082,3.17,4.862,4.962,0-1.33,0-2.4,0-3.48,0-1.99.7-2.7,2.659-2.7,7.122,0,14.248.03,21.37-.012a10.3,10.3,0,0,0,9.73-5.869,10.546,10.546,0,0,0,1.107-4.9q-.009-6.695,0-13.384a4.508,4.508,0,0,1,.091-1.132,2.066,2.066,0,0,1,2.23-1.466,2.006,2.006,0,0,1,1.8,1.959c.021,5.254.228,10.524-.061,15.766-.4,7.281-6.87,13.134-14.178,13.171-6.432.034-12.863.009-19.3.009h-1.305v3.2a29.246,29.246,0,0,1-.055,3.833,3.166,3.166,0,0,1-1.086,1.825,1.674,1.674,0,0,1-2.2-.182c-.834-.724-1.6-1.521-2.388-2.3-1.938-1.926-3.849-3.879-5.82-5.768a2.277,2.277,0,0,0-1.421-.578c-3.77-.049-7.539-.021-11.309-.028a14.445,14.445,0,0,1-14.558-12.3,1.466,1.466,0,0,0-.18-.359Z" transform="translate(-113.568 -516.837)" fill="#2e2e2d"/>
  <path id="Trazado_819" data-name="Trazado 819" d="M141.051,566.364q-10.788,0-21.574,0c-1,0-1.877-.35-2.111-1.305a2.107,2.107,0,0,1,2.261-2.814c5.531-.058,11.062-.034,16.593-.034q13.07,0,26.137,0a5.458,5.458,0,0,1,1.138.058,2.065,2.065,0,0,1,1.585,2.242,2.031,2.031,0,0,1-2.041,1.831c-2.108.033-4.217.012-6.328.015Z" transform="translate(-105.948 -497.879)" fill="#2e2e2d"/>
  <path id="Trazado_820" data-name="Trazado 820" d="M137.185,566.036q8.758,0,17.518.006a2.059,2.059,0,0,1,2.169,2.793,1.994,1.994,0,0,1-2,1.348c-1.211,0-2.419,0-3.63,0q-15.5,0-31,0c-.347,0-.694.018-1.037-.009a2.06,2.06,0,0,1-1.95-2.032,2.017,2.017,0,0,1,2-2.087c1.9-.046,3.8-.018,5.7-.018Z" transform="translate(-106.04 -490.079)" fill="#2e2e2d"/>
  <path id="Trazado_821" data-name="Trazado 821" d="M134.273,562.544q-7.416,0-14.829,0a1.893,1.893,0,0,1-2.09-1.339,2.117,2.117,0,0,1,2.312-2.784c5.391-.055,10.782-.03,16.177-.03q6.741,0,13.481,0a1.9,1.9,0,0,1,2.09,1.339,2.714,2.714,0,0,1-.4,2.069,2.743,2.743,0,0,1-1.917.712C144.158,562.569,139.217,562.544,134.273,562.544Z" transform="translate(-105.951 -505.682)" fill="#2e2e2d"/>
  <path id="Trazado_822" data-name="Trazado 822" d="M135.782,568.124a2.067,2.067,0,1,1-1.993-2.09A2.079,2.079,0,0,1,135.782,568.124Z" transform="translate(-76.643 -490.071)" fill="#2e2e2d"/>
  <path id="Trazado_823" data-name="Trazado 823" d="M141.741,565.371c0-.724-.018-1.451,0-2.178a3.854,3.854,0,0,1,3.058-4.025,4.652,4.652,0,0,0,3.529-3.66,4.592,4.592,0,1,0-9.051-1.549,9.339,9.339,0,0,1-.186,1.12,1.949,1.949,0,0,1-2.376,1.582,2.087,2.087,0,0,1-1.7-2.251,8.782,8.782,0,0,1,17.187-2.33,8.69,8.69,0,0,1-5.288,10.767,1.227,1.227,0,0,0-1.013,1.464c.076,1.135.036,2.282.012,3.423a2.2,2.2,0,0,1-2.087,2.379,2.145,2.145,0,0,1-2.084-2.352C141.723,566.966,141.741,566.168,141.741,565.371Z" transform="translate(-69.767 -531.33)" fill="#2e2e2d"/>
  <path id="Trazado_824" data-name="Trazado 824" d="M139.305,559.285a2.018,2.018,0,0,1-2.072-1.987,2.107,2.107,0,0,1,2.029-2.166,2.208,2.208,0,0,1,2.118,2.127A2.113,2.113,0,0,1,139.305,559.285Z" transform="translate(-65.234 -512.334)" fill="#2e2e2d"/>
</svg>
