<svg xmlns="http://www.w3.org/2000/svg" width="69.139" height="69.154" viewBox="0 0 69.139 69.154">
  <g id="Icono_Link_de_ayuda" data-name="Icono_Link de ayuda" transform="translate(-316.816 -540.935)">
    <path id="Trazado_776" data-name="Trazado 776" d="M385.956,577.8c-.179,1.262-.3,2.534-.546,3.783A34.079,34.079,0,0,1,366.858,606.4a33.082,33.082,0,0,1-17.267,3.634,33.884,33.884,0,0,1-17.53-5.871,1.6,1.6,0,0,0-1.475-.251c-2.637.728-5.282,1.423-7.926,2.121-1.328.351-2.163-.492-1.81-1.824q1.069-4.03,2.157-8.055a1.2,1.2,0,0,0-.144-1.12,32.827,32.827,0,0,1-5.723-14.733A34.661,34.661,0,0,1,345.7,541.389c1.078-.191,2.167-.3,3.251-.454h4.862c1.242.181,2.488.329,3.724.548a34.008,34.008,0,0,1,13.3,5.438,1.4,1.4,0,0,1,.478,1.984,1.379,1.379,0,0,1-2.027.259,31.858,31.858,0,0,0-36.2.305,30.454,30.454,0,0,0-12.837,19.651,31.122,31.122,0,0,0,5.175,24.8,2.491,2.491,0,0,1,.4,2.324c-.582,2-1.094,4.025-1.631,6.04-.038.143-.058.289-.108.544l3.506-.929c1.106-.3,2.219-.56,3.311-.9a1.982,1.982,0,0,1,1.89.345,29.4,29.4,0,0,0,12.716,5.4c11.667,1.856,21.66-1.4,29.7-10.154a30.181,30.181,0,0,0,7.605-15.949,31.365,31.365,0,0,0-4.569-22.256c-.179-.285-.377-.558-.554-.845a1.369,1.369,0,1,1,2.28-1.5,34.155,34.155,0,0,1,4.363,8.926,33.032,33.032,0,0,1,1.5,7.507,4.265,4.265,0,0,0,.128.588Z" transform="translate(0 0)" fill="#fff"/>
    <path id="Trazado_777" data-name="Trazado 777" d="M340.46,547.086a13.935,13.935,0,0,1,13.481,11.8,13.58,13.58,0,0,1-6.923,13.633,3.73,3.73,0,0,0-2.2,2.556c-.094.482-.076.985-.173,1.467a4.238,4.238,0,0,1-4.358,3.365,4.16,4.16,0,0,1-4.021-4.037,11.283,11.283,0,0,1,6.05-10.467,5.725,5.725,0,0,0,3-3.369,5.124,5.124,0,0,0-3.343-6.124,4.981,4.981,0,0,0-6.094,2.763,7.568,7.568,0,0,1-1.134,1.961,4.227,4.227,0,0,1-7.116-4.17,13.244,13.244,0,0,1,10.754-9.167C339.065,547.176,339.767,547.156,340.46,547.086Zm10.788,13.581a9.722,9.722,0,0,0-.008-1.28c-.775-5.87-6.656-10.826-13.2-9.245a10.522,10.522,0,0,0-7.762,6.991,1.505,1.505,0,0,0,1.352,2.119c.726.02,1.218-.377,1.575-1.23a7.612,7.612,0,0,1,7.116-5.083,7.853,7.853,0,0,1,7.75,9.309,8.244,8.244,0,0,1-4.421,5.548,8.645,8.645,0,0,0-4.674,7.81,1.516,1.516,0,0,0,3.02.225c.074-.466.072-.945.173-1.4a6.293,6.293,0,0,1,3.429-4.25A10.5,10.5,0,0,0,351.248,560.667Z" transform="translate(10.652 6.192)" fill="#fff"/>
    <path id="Trazado_778" data-name="Trazado 778" d="M331.808,569.262a4.276,4.276,0,0,1,4.268-4.294,4.271,4.271,0,1,1-.038,8.542A4.237,4.237,0,0,1,331.808,569.262Zm4.242-1.519a1.51,1.51,0,1,0,1.527,1.519A1.478,1.478,0,0,0,336.05,567.743Z" transform="translate(15.092 24.193)" fill="#fff"/>
    <path id="Trazado_779" data-name="Trazado 779" d="M346.445,548.483a1.294,1.294,0,0,1-1.369-1.33,1.329,1.329,0,0,1,1.349-1.369,1.376,1.376,0,0,1,1.352,1.314A1.326,1.326,0,0,1,346.445,548.483Z" transform="translate(28.448 4.881)" fill="#fff"/>
  </g>
</svg>
