<svg xmlns="http://www.w3.org/2000/svg" width="106.552" height="106.605" viewBox="0 0 106.552 106.605">
  <g id="Icono_Aviso_legal" data-name="Icono_Aviso legal" transform="translate(-361.787 -540.014)">
    <path id="Trazado_825" data-name="Trazado 825" d="M409.3,646.62a14.1,14.1,0,0,1-5.982-2.7,12.1,12.1,0,0,1-4.492-10.654c.384-5.323.742-10.649,1.124-15.971.384-5.391.787-10.784,1.174-16.175.065-.935.127-1.869.148-2.8a4.507,4.507,0,0,0-1.23-3.215c-2.493-2.785-2.052-5.8,1.082-7.765a1.041,1.041,0,0,0,.455-.683c.053-.926.021-1.857.021-2.892-1.014,0-1.943-.039-2.865.026a1.135,1.135,0,0,0-.73.544c-2.064,3.466-6.334,3.445-8.434-.036a1.138,1.138,0,0,0-.751-.512c-.964-.059-1.934-.024-2.916-.024a7.934,7.934,0,0,1-6.278,6.13,7.786,7.786,0,0,1-9.217-7.26q-.066-17.583-.006-35.168a7.786,7.786,0,0,1,6.6-7.354,7.882,7.882,0,0,1,8.558,5.13c.115.322.207.654.334,1.062.367,0,.745-.018,1.121,0a3.115,3.115,0,0,0,3.253-1.4c1.869-2.688,5.929-2.247,7.573.63a1.338,1.338,0,0,0,1.372.778q11.754-.031,23.512,0a1.336,1.336,0,0,0,1.363-.789,4.623,4.623,0,0,1,8.043-.053,1.422,1.422,0,0,0,1.544.84c.76-.05,1.523-.012,1.975-.012a24.316,24.316,0,0,1,2.715-4.063,7.783,7.783,0,0,1,12.937,3.6c.062.228.157.45.237.674v37.046c-.08.225-.174.444-.237.674A7.84,7.84,0,0,1,438.487,588a8.321,8.321,0,0,1-2.463-4.24c-1,0-1.934-.044-2.863.026a1.242,1.242,0,0,0-.831.547c-2.058,3.46-6.34,3.442-8.428-.038a1.037,1.037,0,0,0-.651-.509c-.952-.059-1.91-.024-2.93-.024,0,1.029-.038,1.928.021,2.818a1.151,1.151,0,0,0,.488.769c3.022,1.833,3.534,5.021,1.165,7.617a4.631,4.631,0,0,0-1.351,3.271c.012.97.086,1.94.157,2.907q.581,8.082,1.171,16.167c.378,5.32.736,10.642,1.121,15.962a12.141,12.141,0,0,1-4.409,10.589,13.9,13.9,0,0,1-6.062,2.753Zm1.768-56.61q-3.739,0-7.484,0a1.767,1.767,0,0,0-1.848,1.062c-.325.781.089,1.322.583,1.842a8.025,8.025,0,0,1,2.12,6.494c-.349,4.489-.654,8.98-.979,13.473-.322,4.421-.665,8.838-.961,13.262-.2,3.04-.514,6.088-.461,9.125.086,4.855,5.213,8.907,10.007,8.123,5.009-.822,8.12-4.5,7.872-9.572-.24-4.876-.668-9.741-1.014-14.614q-.714-10-1.431-20a7.878,7.878,0,0,1,1.993-6.133c.547-.6,1.127-1.177.686-2.093a1.921,1.921,0,0,0-2.011-.976C415.777,590.012,413.42,590.006,411.063,590.009ZM423.4,549.5H398.555v31.091H423.4ZM373.5,564.98c0,5.654-.015,11.305.009,16.956a4.683,4.683,0,0,0,6.006,4.731,4.788,4.788,0,0,0,3.35-4.941q0-16.177,0-32.348c0-.521.015-1.041-.009-1.561a4.689,4.689,0,0,0-6.006-4.418,4.739,4.739,0,0,0-3.347,4.731C373.494,553.749,373.5,559.365,373.5,564.98Zm74.909-.015c0-5.616.021-11.234-.006-16.849a4.671,4.671,0,0,0-5.92-4.731,4.735,4.735,0,0,0-3.436,4.865q-.009,16.225,0,32.454c0,.521-.015,1.041.009,1.559a4.68,4.68,0,1,0,9.353-.343C448.423,576.267,448.414,570.616,448.411,564.966Zm-62.383,15.678h3.85c1.848,0,1.919.056,2.4,1.83a1.539,1.539,0,0,0,3.043-.106,5.179,5.179,0,0,0,.033-.934q0-16.385,0-32.77a5.458,5.458,0,0,0-.027-.935,1.542,1.542,0,0,0-3.072.038,5.77,5.77,0,0,0-.024.934v26.528a5.458,5.458,0,0,1-.018.934,1.465,1.465,0,0,1-1.567,1.349c-.988,0-1.532-.68-1.532-1.916q0-12.486,0-24.97v-1.136h-3.084Zm43.658-15.613q0-8.37,0-16.743c0-1.213-.6-1.955-1.538-1.972s-1.555.733-1.582,1.925c0,.139,0,.278,0,.417q0,16.376,0,32.755a5.179,5.179,0,0,0,.03.935,1.536,1.536,0,0,0,3.052.047,5.522,5.522,0,0,0,.038-1.038Q429.689,573.2,429.687,565.031Zm3.188-15.557v31.088h3V549.473Zm-15.723,34.361H404.8v3h12.355Z" transform="translate(16.805 0)" fill="#2e2e2d"/>
    <path id="Trazado_826" data-name="Trazado 826" d="M368.254,606.787a19.757,19.757,0,0,1-3.087-1.4,7.733,7.733,0,0,1-2.233-10.489q6.613-11.529,13.286-23.027,2.023-3.508,4.054-7.014c3.439-5.949,10.708-5.991,14.135-.062,5.754,9.951,11.435,19.946,17.266,29.852a7.9,7.9,0,0,1-4.888,11.97c-.092.018-.166.112-.248.175Zm19.032-3.123c5.858,0,11.713.018,17.571-.006a4.619,4.619,0,0,0,4.8-5.426,5.3,5.3,0,0,0-.677-1.831q-8.694-15.112-17.429-30.2c-2.049-3.534-6.3-3.525-8.383-.024-.583.979-1.144,1.975-1.715,2.963q-7.784,13.489-15.569,26.972a5.09,5.09,0,0,0-.884,3.539,4.7,4.7,0,0,0,4.924,4.01C375.711,603.673,381.5,603.664,387.285,603.664Z" transform="translate(0 39.832)" fill="#2e2e2d"/>
    <path id="Trazado_827" data-name="Trazado 827" d="M378.274,572.713c0,1.384.021,2.771-.006,4.155-.053,3.007-2,5.006-4.805,4.98-2.664-.03-4.61-2.164-4.619-5.08-.006-2.839-.03-5.681.012-8.52a4.747,4.747,0,0,1,4.187-4.672,4.672,4.672,0,0,1,4.968,3.25,7.334,7.334,0,0,1,.251,1.94C378.3,570.081,378.274,571.4,378.274,572.713Zm-3.191.08c0-1.458.015-2.913,0-4.368a1.491,1.491,0,0,0-1.464-1.665,1.464,1.464,0,0,0-1.558,1.573q-.058,4.365-.006,8.735a1.553,1.553,0,0,0,1.526,1.641,1.585,1.585,0,0,0,1.5-1.76C375.1,575.563,375.086,574.179,375.083,572.793Z" transform="translate(13.787 46.039)" fill="#2e2e2d"/>
    <path id="Trazado_828" data-name="Trazado 828" d="M373.571,580.148a4.682,4.682,0,1,1,.024-9.362,4.681,4.681,0,0,1-.024,9.362Zm1.5-4.649a1.509,1.509,0,1,0-1.514,1.517A1.563,1.563,0,0,0,375.071,575.5Z" transform="translate(13.797 60.223)" fill="#2e2e2d"/>
  </g>
</svg>
