<svg xmlns="http://www.w3.org/2000/svg" width="74.762" height="106.605" viewBox="0 0 74.762 106.605">
  <g id="_icono_política_de_privacidad" data-name=" icono_política de privacidad" transform="translate(-244.146 -542.419)">
    <path id="Trazado_780" data-name="Trazado 780" d="M318,542.419a2.691,2.691,0,0,1,.9,2.289q-.034,12.762-.014,25.524a7.412,7.412,0,0,1-.026.833,1.57,1.57,0,0,1-1.561,1.5,1.646,1.646,0,0,1-1.569-1.527,9.341,9.341,0,0,1-.011-.935q0-11.619,0-23.235V545.6H247.33v70.549a5.89,5.89,0,0,1-.034,1.142,1.514,1.514,0,0,1-1.6,1.354,1.456,1.456,0,0,1-1.51-1.425c-.028-.309-.028-.623-.028-.935q0-35.787-.017-71.577a2.686,2.686,0,0,1,.9-2.286Z" transform="translate(0)" fill="#2e2e2d"/>
    <path id="Trazado_781" data-name="Trazado 781" d="M247.324,617h20.929a22.5,22.5,0,0,1-4.051-8.154,35.376,35.376,0,0,1-.969-6.658c-.15-4.408-.048-8.823-.045-13.234,0-1.309.295-1.723,1.541-2.111,5.324-1.652,10.647-3.309,15.979-4.924a2.96,2.96,0,0,1,1.609-.008c5.366,1.623,10.715,3.3,16.075,4.938a1.89,1.89,0,0,1,1.476,2.077c-.031,4.307-.011,8.616-.011,12.922a24.483,24.483,0,0,1-4.51,14.35c-.159.224-.306.453-.535.791h20.906v-59.78c0-.314-.008-.626,0-.938a1.67,1.67,0,0,1,1.55-1.765,1.6,1.6,0,0,1,1.609,1.68c.017.312.009.626.009.938v60.55c0,2.238-.363,2.6-2.581,2.6-7.851,0-15.7-.011-23.552.028a3.471,3.471,0,0,0-1.754.629c-2.9,1.907-5.729,3.91-8.658,5.763a2.154,2.154,0,0,1-1.892-.15c-2.964-1.929-5.848-3.981-8.783-5.953a2.358,2.358,0,0,0-1.255-.3q-11.989-.025-23.971-.014c-1.808,0-2.284-.468-2.284-2.272-.006-5.105-.023-10.213.028-15.319a2.659,2.659,0,0,1,.68-1.717,1.586,1.586,0,0,1,1.513-.133,2.184,2.184,0,0,1,.9,1.479c.116,1.589.042,3.193.042,4.791Zm49.611-20.234-.229-.017c0-2.014-.042-4.032.02-6.043a1.161,1.161,0,0,0-1-1.368c-4.476-1.343-8.93-2.754-13.407-4.105a2.751,2.751,0,0,0-1.5-.02c-4.57,1.38-9.123,2.819-13.7,4.2a.939.939,0,0,0-.8,1.085c.028,3.785-.034,7.573.026,11.358a21.006,21.006,0,0,0,8.247,16.982c2.04,1.6,4.292,2.935,6.479,4.346a1.112,1.112,0,0,0,.986-.048c1.932-1.23,3.876-2.448,5.729-3.791a19.787,19.787,0,0,0,8.307-12.758C296.675,603.374,296.675,600.048,296.936,596.77Z" transform="translate(0.006 22.164)" fill="#2e2e2d"/>
    <path id="Trazado_782" data-name="Trazado 782" d="M273.382,544.636q11.253,0,22.5,0c1.708,0,2.258.535,2.264,2.216,0,1.774.011,3.544,0,5.315-.014,1.366-.618,2-1.966,2q-22.817.013-45.631,0c-1.334,0-1.935-.646-1.946-2.017-.014-1.771-.009-3.541,0-5.312.006-1.643.55-2.2,2.176-2.2Q262.08,544.631,273.382,544.636Zm-21.5,6.213h42.988V547.9H251.884Z" transform="translate(8.154 4.061)" fill="#2e2e2d"/>
    <path id="Trazado_783" data-name="Trazado 783" d="M276.077,553.917h26.467c1.669,0,2.454.5,2.49,1.564.037,1.113-.79,1.669-2.49,1.669q-26.467,0-52.935,0c-1.7,0-2.527-.555-2.49-1.669.037-1.068.822-1.564,2.49-1.564Z" transform="translate(5.449 21.078)" fill="#2e2e2d"/>
    <path id="Trazado_784" data-name="Trazado 784" d="M276.07,554.883q-13.183,0-26.363,0a11.019,11.019,0,0,1-1.145-.031,1.464,1.464,0,0,1-1.436-1.5,1.513,1.513,0,0,1,1.329-1.612,4.694,4.694,0,0,1,1.04-.037h53.142c.244,0,.487-.011.728.006a1.62,1.62,0,0,1,1.66,1.64,1.593,1.593,0,0,1-1.655,1.521c-.346.026-.694.014-1.043.014Z" transform="translate(5.46 16.998)" fill="#2e2e2d"/>
    <path id="Trazado_785" data-name="Trazado 785" d="M276.186,556.235h26.465c1.612,0,2.354.479,2.383,1.527.028,1.1-.759,1.635-2.391,1.635q-26.569,0-53.142,0c-.21,0-.416.006-.626,0a1.625,1.625,0,0,1-1.754-1.646,1.576,1.576,0,0,1,1.762-1.5c4.1-.02,8.2-.011,12.3-.011Z" transform="translate(5.451 25.324)" fill="#2e2e2d"/>
    <path id="Trazado_786" data-name="Trazado 786" d="M267.493,552.616q-6.923,0-13.846,0c-1.3,0-2.06-.819-1.782-1.941a1.536,1.536,0,0,1,1.708-1.2c2.638.011,5.275,0,7.913,0q9.838,0,19.674,0c1.2,0,1.819.411,1.958,1.269.178,1.1-.527,1.859-1.782,1.859Q274.413,552.623,267.493,552.616Z" transform="translate(14.045 12.938)" fill="#2e2e2d"/>
    <path id="Trazado_787" data-name="Trazado 787" d="M262.317,561.67c-4.476,0-8.956.006-13.432-.006a1.583,1.583,0,0,1-1.765-1.606,1.611,1.611,0,0,1,1.757-1.521c.241-.006.484,0,.728,0h22.8c1.147,0,2.292-.008,3.437.006a1.635,1.635,0,0,1,1.833,1.561,1.605,1.605,0,0,1-1.822,1.564C271.343,561.676,266.83,561.67,262.317,561.67Z" transform="translate(5.449 29.536)" fill="#2e2e2d"/>
    <path id="Trazado_788" data-name="Trazado 788" d="M255.132,560.822c1.943,0,3.887-.008,5.831,0,1.2.008,1.932.6,1.966,1.553s-.694,1.632-1.873,1.638q-6.039.034-12.078,0c-1.176-.006-1.9-.7-1.859-1.646s.762-1.536,1.972-1.544C251.106,560.814,253.118,560.822,255.132,560.822Z" transform="translate(5.449 33.73)" fill="#2e2e2d"/>
    <path id="Trazado_789" data-name="Trazado 789" d="M269.909,560.825c2.046,0,4.094-.009,6.142,0,.861,0,1.589.416,1.649,1.261a2.879,2.879,0,0,1-.728,1.663c-.173.229-.7.261-1.068.261-4.026.017-8.052.026-12.078,0a1.631,1.631,0,0,1-1.844-1.558c-.017-.963.72-1.62,1.887-1.629C265.883,560.811,267.895,560.822,269.909,560.825Z" transform="translate(32.696 33.73)" fill="#2e2e2d"/>
    <path id="Trazado_790" data-name="Trazado 790" d="M277.446,576.181a74.219,74.219,0,0,1-.943,8.542,16.827,16.827,0,0,1-6.865,10.095,35.384,35.384,0,0,1-3.473,2.281,2.1,2.1,0,0,1-1.714.17c-3.442-1.992-6.655-4.258-8.729-7.811a18.845,18.845,0,0,1-2.609-9.293c-.054-2.844-.02-5.692-.011-8.536.006-1.255.346-1.686,1.6-2.074,3.17-.986,6.335-1.992,9.519-2.929a3.4,3.4,0,0,1,1.813-.031c3.216.946,6.4,1.995,9.613,2.955a1.936,1.936,0,0,1,1.555,2.131c-.026,1.49-.006,2.983-.006,4.476ZM256.331,577.3c0,.728.009,1.459,0,2.187-.076,5.867,2.425,10.3,7.278,13.565a2.354,2.354,0,0,0,3.133-.04c3.836-2.572,6.448-5.984,6.981-10.593a88.681,88.681,0,0,0,.2-9.672c0-.2-.4-.515-.671-.6q-3.761-1.207-7.542-2.332a2.03,2.03,0,0,0-1.1-.006c-2.553.762-5.091,1.578-7.644,2.343-.544.164-.66.462-.649.977C256.353,574.518,256.331,575.906,256.331,577.3Z" transform="translate(16.382 44.116)" fill="#2e2e2d"/>
  </g>
</svg>
