<svg xmlns="http://www.w3.org/2000/svg" width="107.728" height="106.606" viewBox="0 0 107.728 106.606">
  <g id="Icono_Terminos_y_condiciones" data-name="Icono_Terminos y condiciones" transform="translate(0 0)">
    <path id="Trazado_791" data-name="Trazado 791" d="M155.4,638.95a2.04,2.04,0,0,1,1.873-.859c2.2.056,4.408.019,6.778.019v-1.361q0-33.22-.006-66.437a6.432,6.432,0,0,1,1.218-4.143,5.243,5.243,0,0,1,4.421-1.992c4.976.012,9.953-.009,14.929.019a1.565,1.565,0,0,0,1.577-.874c6.615-11.1,16.262-18.057,29.015-20.149a41.208,41.208,0,0,1,16.134,80.776c-1.692.4-3.425.637-5.223.961v1.274q0,8.41-.009,16.821a8.944,8.944,0,0,1-.194,2.185,5.211,5.211,0,0,1-5.445,4.015q-12.194.014-24.388,0H163.071c-4.358,0-6.453-1.639-7.546-5.888-.016-.062-.081-.112-.125-.166Zm11.148-.84h1.417q22.07,0,44.137,0c1.4,0,1.714.334,1.751,1.711a29.509,29.509,0,0,0,.225,3.865,3.261,3.261,0,0,0,3.144,2.994c1.224.059,2.454.056,3.678,0a2.67,2.67,0,0,0,2.66-2.588c.05-.521.05-1.049.05-1.574q0-35.154.016-70.3c0-1.826.219-3.653.337-5.547h-.668q-26.636,0-53.278,0a8.372,8.372,0,0,0-1.046.063,2.5,2.5,0,0,0-2.217,1.948,6.13,6.13,0,0,0-.2,1.655q-.014,33.314-.006,66.624Zm71.916-89.3c-.921,1.539-1.751,2.991-2.654,4.4a1.094,1.094,0,0,0,.059,1.4c.843,1.246,1.63,2.529,2.435,3.8.765,1.208.7,1.561-.456,2.445-1.542,1.177-3.091,2.351-4.677,3.553,3.506,1.742,4.7,3.609,4.642,7.439a9.793,9.793,0,0,0,.752,4.077,1.665,1.665,0,0,1-.534,2.133c-1.5,1.314-2.86,2.816-4.458,3.99-2.473,1.814-3.849,4-3.453,7.162.069.556.144.877.646,1.133,1.773.905,3.559,1.8,5.276,2.8a2.5,2.5,0,0,1,1.058,1.411c.393,1.626.618,3.291.918,4.942.34,1.873.693,3.746,1.058,5.7,1.489-.175,2.844-.294,4.183-.512a1.678,1.678,0,0,0,1.046-.649q4.739-7.615,9.384-15.288a1.3,1.3,0,0,0-.062-1.152c-.93-1.352-2.029-2.594-2.913-3.977-1.255-1.964-2.738-3.49-5.226-3.634a.834.834,0,0,1-.2-.072,1.263,1.263,0,0,1-.734-2.061c.343-.571.774-1.089,1.09-1.67a21.052,21.052,0,0,1,7.6-7.914c1.086-.671,2.07-1.514,3.1-2.279A38.948,38.948,0,0,0,238.464,548.808Zm18.9,19.628c-3.631,2.757-7.845,4.864-9.625,9.553a9.282,9.282,0,0,1,1.458.44,3.58,3.58,0,0,1,1.342.9c1.973,2.544,3.88,5.142,5.832,7.7a1.593,1.593,0,0,1,.128,2.017c-3.525,5.719-7.024,11.451-10.574,17.155a2.124,2.124,0,0,1-1.3.9c-2.073.306-4.165.5-6.253.712a1.344,1.344,0,0,1-1.592-1.286c-.624-3.506-1.243-7.015-1.926-10.511a1.951,1.951,0,0,0-.855-1.164c-1.761-1.005-3.562-1.939-5.373-2.85a1.764,1.764,0,0,1-1.065-1.945c.15-1.711.29-3.422.343-5.136a2.425,2.425,0,0,1,.9-1.895c2.251-2,4.449-4.062,6.693-6.072.412-.368.727-.749.365-1.224a1.422,1.422,0,0,0-.99-.465c-2.242-.041-4.486-.019-6.728-.019h-1.9V622.27C254.014,618.883,267.4,590.208,257.364,568.436Zm-21.5-9.25c-.9-1.4-1.7-2.75-2.61-4.03a2.051,2.051,0,0,1-.016-2.594c1-1.549,1.9-3.159,2.878-4.8a35.44,35.44,0,0,0-9.59-2.373,2.059,2.059,0,0,0-1.233.378c-2.794,1.923-5.566,3.887-8.345,5.835-.652.456-1.308.909-2.011,1.4.974,1.058,1.889,2.02,2.766,3.016.983,1.111.612,2.12-.862,2.385q-6.959,1.255-13.921,2.5a1.5,1.5,0,0,1-1.926-1.13c-.662-1.951-1.383-3.877-2.089-5.813-.112-.309-.256-.6-.418-.977a38.662,38.662,0,0,0-9.878,11.126c.318.034.487.069.659.069q19.7,0,39.4-.009a1.738,1.738,0,0,0,.968-.281C231.69,562.367,233.716,560.815,235.864,559.186ZM212.247,646.7l-1.149-6.019H158.01c-.45,4.1,1.239,6.019,5.235,6.019h49Zm2.267-90.429c-.771-.849-1.4-1.548-2.039-2.248-1.008-1.108-.958-1.68.262-2.535,2.638-1.851,5.282-3.684,7.923-5.529.3-.209.574-.443.858-.668l-.084-.284c-1.9.19-3.809.3-5.691.584a37.566,37.566,0,0,0-14.507,5.46.76.76,0,0,0-.4,1.084c.69,1.829,1.317,3.684,2.039,5.5a1.084,1.084,0,0,0,.877.546C207.3,557.594,210.829,556.941,214.513,556.273Zm20.811,16.421c0-.693.022-1.314,0-1.936a4.02,4.02,0,0,0-3.765-4.04,14.621,14.621,0,0,0-3.241.15,2.13,2.13,0,0,0-2.035,1.823c-.125,1.305-.028,2.632-.028,4Z" transform="translate(-155.4 -542.605)" fill="#2e2e2d"/>
    <path id="Trazado_792" data-name="Trazado 792" d="M175.069,579.645c0-1.224,0-2.451,0-3.674,0-.83-.328-1.161-1.183-.883a2.937,2.937,0,0,1-3.344-.831,3,3,0,0,1-.421-3.515c.328-.687.247-1.074-.593-1.274a2.734,2.734,0,0,1-2.232-2.36,2.946,2.946,0,0,1,1.464-3.309c.759-.424.824-.833.215-1.455a2.879,2.879,0,0,1-.59-3.387,2.829,2.829,0,0,1,2.922-1.8c.852.044,1.164-.247.974-1.105a2.818,2.818,0,0,1,1.339-3.153,2.786,2.786,0,0,1,3.344.022c.768.549,1.155.54,1.533-.412a3.046,3.046,0,0,1,5.6-.041c.353.843.687,1.108,1.52.484a2.8,2.8,0,0,1,3.344-.084,2.855,2.855,0,0,1,1.4,3.144c-.19.958.137,1.183,1.008,1.146a3.061,3.061,0,0,1,2.307,5.154c-.659.693-.531,1.071.231,1.52a2.854,2.854,0,0,1,1.486,2.913,2.932,2.932,0,0,1-2.3,2.691c-.862.219-1.105.528-.668,1.38a2.906,2.906,0,0,1-.356,3.337,3.011,3.011,0,0,1-3.212,1.024c-1.274-.278-1.346-.29-1.392.971-.087,2.273-.087,4.546-.112,6.818-.025,2.048-1.036,2.772-2.694,1.617a5.415,5.415,0,0,0-6.828-.069c-1.708,1.136-2.725.384-2.729-1.717,0-1.049,0-2.1,0-3.15Zm12.675-23.926.2-.04c-.1-.206-.15-.515-.312-.59a.963.963,0,0,0-.756.009c-2.563,1.283-3.715.955-5.042-1.436-.115-.212-.384-.478-.578-.471s-.45.275-.565.493c-1.258,2.329-2.6,2.722-4.97,1.455-.215-.115-.615-.2-.74-.087a1.03,1.03,0,0,0-.268.793c.312,2.344-.874,3.752-3.237,3.84a1.2,1.2,0,0,0-.843.39c-.094.128.106.571.281.79,1.474,1.82,1.224,3.643-.668,4.93a3.455,3.455,0,0,0-.609.749,3.615,3.615,0,0,0,.8.546,3.125,3.125,0,0,1,2.085,4.471,4.016,4.016,0,0,0-.144.98,3.379,3.379,0,0,0,.977.062c2.238-.537,3.753.453,4.19,2.741.053.272.25.728.384.728a1.259,1.259,0,0,0,.852-.387,3.077,3.077,0,0,1,4.911-.081,3.486,3.486,0,0,0,.912.512,4.348,4.348,0,0,0,.393-.884,3.133,3.133,0,0,1,4.183-2.629,3.121,3.121,0,0,0,.968-.066,3.309,3.309,0,0,0-.094-.89c-.871-2.207-.131-3.79,2.148-4.592.259-.091.631-.328.649-.528.022-.215-.262-.531-.49-.693-1.976-1.4-2.226-3.122-.724-4.992.172-.212.353-.671.259-.784a1.312,1.312,0,0,0-.868-.374,3.106,3.106,0,0,1-3.281-2.626A8.332,8.332,0,0,1,187.744,555.719ZM177.61,581.865a19.871,19.871,0,0,1,2.675-1.277,3.449,3.449,0,0,1,1.948.006,17.376,17.376,0,0,1,2.491,1.252V578.7a3.512,3.512,0,0,1-3.053-1.52.88.88,0,0,0-.843-.028,3.588,3.588,0,0,1-3.219,1.548Z" transform="translate(-130.279 -525.549)" fill="#2e2e2d"/>
    <path id="Trazado_793" data-name="Trazado 793" d="M195.263,568.89v2.363h-34.1V568.89Z" transform="translate(-143.172 -486.831)" fill="#2e2e2d"/>
    <path id="Trazado_794" data-name="Trazado 794" d="M188.08,567.109v2.335H161.163v-2.335Z" transform="translate(-143.172 -490.61)" fill="#2e2e2d"/>
    <path id="Trazado_795" data-name="Trazado 795" d="M161.184,565.836V563.4c.365-.025.671-.063.974-.063q12.194,0,24.385.013c.362,0,1.008.175,1.036.347a5.406,5.406,0,0,1-.081,1.951c-.028.134-.687.181-1.055.181q-9.67.014-19.337.006Z" transform="translate(-143.127 -498.615)" fill="#2e2e2d"/>
    <path id="Trazado_796" data-name="Trazado 796" d="M167.957,567.76c-.337-2.423-.337-2.423,1.929-2.423H190.41v2.423Z" transform="translate(-129.099 -494.37)" fill="#2e2e2d"/>
    <path id="Trazado_797" data-name="Trazado 797" d="M161.184,573.283v-2.441h21.229c.059.072.137.122.144.181.228,2.26.228,2.26-1.995,2.26H161.184Z" transform="translate(-143.127 -482.689)" fill="#2e2e2d"/>
    <path id="Trazado_798" data-name="Trazado 798" d="M168.734,573.192v-2.348h19.684v2.348Z" transform="translate(-127.107 -482.685)" fill="#2e2e2d"/>
    <path id="Trazado_799" data-name="Trazado 799" d="M176.918,565.358v2.363H161.184v-2.363Z" transform="translate(-143.127 -494.325)" fill="#2e2e2d"/>
    <path id="Trazado_800" data-name="Trazado 800" d="M161.158,555.726v-2.317h13.465v2.317Z" transform="translate(-143.182 -519.68)" fill="#2e2e2d"/>
    <path id="Trazado_801" data-name="Trazado 801" d="M184.011,567.086v2.432H171.027c-.047-.072-.116-.128-.119-.187-.2-2.245-.194-2.245,2.01-2.245h11.092Z" transform="translate(-122.662 -490.659)" fill="#2e2e2d"/>
    <path id="Trazado_802" data-name="Trazado 802" d="M183.8,565.694H170.914v-2.326H183.8Z" transform="translate(-122.481 -498.548)" fill="#2e2e2d"/>
    <path id="Trazado_803" data-name="Trazado 803" d="M161.163,557.615v-2.37h9.091v2.37Z" transform="translate(-143.172 -515.784)" fill="#2e2e2d"/>
    <path id="Trazado_804" data-name="Trazado 804" d="M172.871,571.243v-2.351h6.771v2.351Z" transform="translate(-118.328 -486.826)" fill="#2e2e2d"/>
    <path id="Trazado_805" data-name="Trazado 805" d="M183.976,560.112a7.3,7.3,0,1,1-7.3-7.3A7.343,7.343,0,0,1,183.976,560.112Zm-2.5.047a4.8,4.8,0,1,0-4.842,4.776A4.836,4.836,0,0,0,181.472,560.159Z" transform="translate(-125.747 -520.944)" fill="#2e2e2d"/>
  </g>
</svg>
