<svg xmlns="http://www.w3.org/2000/svg" width="418.532" height="419.082" viewBox="0 0 418.532 419.082">
  <g id="Icono_COMREMIT_Detalle" opacity="0.29">
    <g id="Grupo_130" data-name="Grupo 130">
      <path id="Trazado_501" data-name="Trazado 501" d="M874.41,927.149a24.517,24.517,0,0,1-7.643-1.234L789.445,900.14a10.2,10.2,0,0,0-8.018.725c-40.633,20.625-86.361,27.248-132.009,19.015-83.571-14.965-150.164-80.889-165.747-164.057-13.007-69.462,7.724-137.559,56.939-186.854,49.214-49.242,117.2-70,186.719-57.207,83.357,15.5,149.442,82.2,164.433,166.016,8.207,45.942,1.448,91.83-19.551,132.651a10.351,10.351,0,0,0-.724,8.045L897.154,895.5a24.068,24.068,0,0,1-22.744,31.649Zm-88.076-40.928a23.091,23.091,0,0,1,7.375,1.207L871,913.176a10.579,10.579,0,0,0,13.411-13.436l-25.667-77.027a23.716,23.716,0,0,1,1.529-18.4c19.659-38.218,25.988-81.13,18.291-124.177-14.027-78.339-75.793-140.7-153.705-155.179-65.039-12.176-128.762,7.375-174.758,53.5-46.023,46.1-65.441,109.857-53.238,174.894h0c14.564,77.725,76.787,139.357,154.913,153.329,42.777,7.671,85.555,1.555,123.586-17.808A24.3,24.3,0,0,1,786.334,886.222Z" transform="translate(-479.871 -508.067)" fill="rgba(0,0,0,0.38)"/>
    </g>
  </g>
</svg>
