<?xml version="1.0" encoding="UTF-8" standalone="no"?>
<svg
   width="110"
   height="65"
   viewBox="0 0 110 65"
   version="1.1"
   id="svg17"
   sodipodi:docname="bonus-recharge-icon.svg"
   inkscape:version="1.1 (c68e22c387, 2021-05-23)"
   xmlns:inkscape="http://www.inkscape.org/namespaces/inkscape"
   xmlns:sodipodi="http://sodipodi.sourceforge.net/DTD/sodipodi-0.dtd"
   xmlns="http://www.w3.org/2000/svg"
   xmlns:svg="http://www.w3.org/2000/svg">
  <defs
     id="defs21" />
  <sodipodi:namedview
     id="namedview19"
     pagecolor="#ffffff"
     bordercolor="#666666"
     borderopacity="1.0"
     inkscape:pageshadow="2"
     inkscape:pageopacity="0.0"
     inkscape:pagecheckerboard="0"
     showgrid="false"
     inkscape:zoom="3.94374"
     inkscape:cx="31.315452"
     inkscape:cy="32.83685"
     inkscape:window-width="1366"
     inkscape:window-height="697"
     inkscape:window-x="-8"
     inkscape:window-y="-8"
     inkscape:window-maximized="1"
     inkscape:current-layer="svg17" />
  <g
     id="Icono_Bono_Landing"
     transform="translate(0)">
    <g
       id="Grupo_173"
       data-name="Grupo 173"
       transform="translate(0 0)">
      <g
         id="Grupo_171"
         data-name="Grupo 171">
        <path
           id="Trazado_607"
           data-name="Trazado 607"
           d="M728.714,420.12a1.9,1.9,0,0,1-1.793.773c-1.287-.05-2.575-.012-3.97-.012.222.56.416,1.057.617,1.551.277.682.576,1.358.839,2.045a1.255,1.255,0,0,1-1.063,1.852c-2.483.354-4.967.7-7.457,1-1.6.194-1.569.16-1.766,1.788-.3,2.427-.629,4.848-.976,7.268-.18,1.249-.9,1.633-2.074,1.15-2.55-1.05-5.106-2.093-7.642-3.178a.648.648,0,0,0-.928.263q-2.506,3.306-5.047,6.582a1.321,1.321,0,0,1-2.38-.005c-1.688-2.189-3.378-4.377-5.047-6.581a.644.644,0,0,0-.928-.249c-2.538,1.08-5.091,2.12-7.642,3.168-1.169.482-1.894.1-2.072-1.153q-.586-4.129-1.1-8.271c-.055-.437-.187-.6-.64-.659-2.822-.354-5.642-.737-8.461-1.123a1.255,1.255,0,0,1-1.057-1.853c.46-1.171.951-2.33,1.47-3.6h-.819q-1.711,0-3.423,0c-1.3,0-1.852-.8-1.354-2,1.015-2.428,1.935-4.9,3.092-7.261a4.459,4.459,0,0,0-.014-4.311c-1.137-2.346-2.015-4.814-3.078-7.2a1.377,1.377,0,0,1,1.383-2.06c1.363.087,2.737.02,4.212.02-.443-1.081-.857-2.085-1.267-3.09a4.933,4.933,0,0,1-.308-.826,1.242,1.242,0,0,1,1.125-1.528c2.82-.386,5.639-.773,8.463-1.123.474-.059.622-.217.681-.688.346-2.781.723-5.557,1.111-8.333a1.285,1.285,0,0,1,1.966-1.107q3.974,1.626,7.94,3.277l.348.142q1.25-1.621,2.5-3.245c.94-1.221,1.866-2.452,2.824-3.659a8.121,8.121,0,0,1,.906-.857h.761a7.837,7.837,0,0,1,.908.855q2.506,3.22,4.969,6.474a.616.616,0,0,0,.881.242c2.555-1.084,5.125-2.141,7.691-3.2,1.13-.466,1.875-.071,2.042,1.127q.584,4.161,1.109,8.327c.055.45.215.585.656.64q4.23.531,8.452,1.127a1.253,1.253,0,0,1,1.05,1.857c-.3.766-.622,1.519-.931,2.278-.169.416-.331.833-.519,1.312,1.4,0,2.683.039,3.967-.014a1.926,1.926,0,0,1,1.793.775v1.013a3.922,3.922,0,0,0-.274.462c-1.21,2.866-2.429,5.729-3.606,8.61a1.632,1.632,0,0,0,0,1.118c1.167,2.861,2.378,5.706,3.579,8.553a4.908,4.908,0,0,0,.3.521ZM667.036,400.6c.1.277.16.455.231.626,1.029,2.447,2.044,4.9,3.1,7.334a2.12,2.12,0,0,1,0,1.814c-1.05,2.436-2.067,4.887-3.1,7.334-.078.188-.142.382-.22.594h58.428c-.082-.226-.137-.4-.21-.576-1.027-2.445-2.038-4.9-3.1-7.331a2.161,2.161,0,0,1,.014-1.87c.746-1.7,1.445-3.412,2.161-5.122.38-.906.757-1.816,1.168-2.8h-.771q-11.278,0-22.559,0c-.938,0-1.479-.466-1.482-1.26s.539-1.271,1.471-1.271q4.15,0,8.3,0c3.041,0,6.083,0,9.124-.007.206,0,.54-.05.6-.176.435-.951.818-1.926,1.24-2.952-2.735-.359-5.385-.716-8.036-1.048-.942-.119-1.4-.466-1.518-1.315-.149-1.064-.268-2.133-.409-3.2-.22-1.662-.446-3.323-.679-5.043-.251.094-.446.162-.636.242q-3.385,1.4-6.771,2.8c-1.132.467-1.48.382-2.218-.576q-1.778-2.308-3.547-4.622c-.443-.576-.894-1.144-1.37-1.752-1.674,2.179-3.291,4.29-4.914,6.4-.718.931-1.079,1.022-2.17.57q-2.626-1.09-5.251-2.182c-.714-.3-1.431-.583-2.193-.892-.363,2.737-.72,5.386-1.057,8.04-.119.942-.471,1.391-1.322,1.509-1.379.19-2.76.354-4.139.535-1.347.178-2.694.364-4.114.558.371.9.743,1.724,1.05,2.571a.727.727,0,0,0,.818.56c4.626-.02,9.252-.012,13.877-.012,1.225,0,2.449-.007,3.675,0a1.239,1.239,0,0,1,1.31,1.367c-.05.729-.585,1.162-1.454,1.162q-11.281,0-22.559,0Zm14.693,34.023c.252-.1.466-.171.675-.256q3.5-1.447,7.007-2.893a1.276,1.276,0,0,1,1.774.464c.691.878,1.365,1.772,2.047,2.659,1,1.3,2,2.595,3.026,3.927.206-.256.368-.448.519-.645q2.181-2.839,4.357-5.676c.773-1.008,1.109-1.1,2.259-.624q3.383,1.4,6.771,2.8c.2.084.407.148.645.235.361-2.763.714-5.438,1.059-8.112a1.389,1.389,0,0,1,1.285-1.406c.752-.112,1.507-.187,2.259-.284,1.981-.261,3.963-.526,6.023-.8-.345-.849-.7-1.633-.983-2.442a.921.921,0,0,0-1.043-.707q-23.162.032-46.322.018a2.626,2.626,0,0,0-.443.007c-.112.018-.277.064-.311.142-.419.976-.817,1.958-1.235,2.977,2.739.363,5.369.721,8,1.057,1.086.139,1.438.5,1.576,1.6C681.009,429.3,681.37,431.925,681.729,434.626Z"
           transform="translate(-663.819 -377.032)"
           fill="#2e2e2d" />
      </g>
      <g
         id="Grupo_172"
         data-name="Grupo 172"
         transform="translate(31.181 21.039)">
        <path
           id="Trazado_608"
           data-name="Trazado 608"
           d="M682.613,391.4a1.266,1.266,0,1,1,1.283-1.265A1.24,1.24,0,0,1,682.613,391.4Z"
           transform="translate(-681.365 -388.871)"
           fill="#2e2e2d" />
      </g>
    </g>
    <g
       id="Grupo_178"
       data-name="Grupo 178"
       transform="translate(12.231 27.555)">
      <g
         id="Grupo_174"
         data-name="Grupo 174"
         transform="translate(0 0.338)">
        <path
           id="Trazado_609"
           data-name="Trazado 609"
           d="M674.3,401.935a.8.8,0,0,1-.823-.835v-7.656a.8.8,0,0,1,.823-.835h3.787a2.523,2.523,0,0,1,2.721,2.573,2.135,2.135,0,0,1-.741,1.7,2.26,2.26,0,0,1,1.537,2.237,2.77,2.77,0,0,1-3.073,2.817Zm3.787-7.681h-2.845v2.006h2.845c.579,0,.942-.364.942-1.079A.939.939,0,0,0,678.089,394.255Zm-2.845,6.037h3.29a1.194,1.194,0,0,0,0-2.387h-3.29Z"
           transform="translate(-673.479 -392.609)"
           fill="#2e2e2d" />
      </g>
      <g
         id="Grupo_175"
         data-name="Grupo 175"
         transform="translate(9.385)">
        <path
           id="Trazado_610"
           data-name="Trazado 610"
           d="M683.841,402.218a4.706,4.706,0,0,1-5.081-4.851,4.952,4.952,0,0,1,9.9,0A4.7,4.7,0,0,1,683.841,402.218Zm-.149-8.047a3.194,3.194,0,1,0,3.208,3.2A3.084,3.084,0,0,0,683.692,394.171Z"
           transform="translate(-678.76 -392.419)"
           fill="#2e2e2d" />
      </g>
      <g
         id="Grupo_176"
         data-name="Grupo 176"
         transform="translate(20.954 0.217)">
        <path
           id="Trazado_611"
           data-name="Trazado 611"
           d="M685.27,393.606c0-.485.107-.956.809-.956.485,0,.592.121.956.471L691.5,398.7V393.47a.948.948,0,0,1,.849-.929,1.027,1.027,0,0,1,.958.929v7.588a.9.9,0,0,1-.714.929,1.355,1.355,0,0,1-1.093-.473l-4.461-5.66v5.2a.837.837,0,0,1-.848.929.888.888,0,0,1-.917-.929Z"
           transform="translate(-685.27 -392.541)"
           fill="#2e2e2d" />
      </g>
      <g
         id="Grupo_177"
         data-name="Grupo 177"
         transform="translate(30.527)">
        <path
           id="Trazado_612"
           data-name="Trazado 612"
           d="M695.738,402.218a4.706,4.706,0,0,1-5.081-4.851,4.953,4.953,0,0,1,9.906,0A4.7,4.7,0,0,1,695.738,402.218Zm-.147-8.047a3.194,3.194,0,1,0,3.208,3.2A3.085,3.085,0,0,0,695.59,394.171Z"
           transform="translate(-690.657 -392.419)"
           fill="#2e2e2d" />
      </g>
    </g>
  </g>
  <g
     id="Grupo_208"
     data-name="Grupo 208"
     transform="translate(74.430202,0.20322)">
    <g
       id="Grupo_206"
       data-name="Grupo 206">
      <path
         id="Trazado_647"
         data-name="Trazado 647"
         d="m 181.6,440.4 h -25.684 a 4.864,4.864 0 0 1 -4.859,-4.857 v -55.2 a 4.864,4.864 0 0 1 4.859,-4.857 h 3.756 l 0.99,3.779 a 1.624,1.624 0 0 0 1.57,1.215 h 13.659 a 1.615,1.615 0 0 0 1.559,-1.167 l 1.13,-3.827 h 3.02 a 4.863,4.863 0 0 1 4.857,4.857 v 55.2 A 4.863,4.863 0 0 1 181.6,440.4 Z m -25.682,-63.058 a 3,3 0 0 0 -3,3 v 55.2 a 3,3 0 0 0 3,3 H 181.6 a 3,3 0 0 0 3,-3 v -55.2 a 3.005,3.005 0 0 0 -3,-3 h -1.629 l -0.738,2.5 a 3.5,3.5 0 0 1 -3.339,2.5 h -13.662 a 3.479,3.479 0 0 1 -3.366,-2.6 l -0.626,-2.392 z"
         transform="translate(-151.057,-375.49)"
         fill="#2e2e2d" />
    </g>
    <g
       id="Grupo_207"
       data-name="Grupo 207"
       transform="translate(6.697)">
      <path
         id="Trazado_648"
         data-name="Trazado 648"
         d="m 173.366,382.339 h -13.658 a 3.479,3.479 0 0 1 -3.366,-2.6 l -1.112,-4.247 h 22.764 l -1.287,4.353 a 3.5,3.5 0 0 1 -3.341,2.494 z m -15.733,-4.994 0.5,1.923 a 1.624,1.624 0 0 0 1.57,1.215 h 13.659 a 1.615,1.615 0 0 0 1.559,-1.167 l 0.581,-1.971 z"
         transform="translate(-155.229,-375.49)"
         fill="#2e2e2d" />
    </g>
  </g>
  <g
     id="Grupo_209"
     data-name="Grupo 209"
     transform="translate(84.823202,13.34822)">
    <path
       id="Trazado_649"
       data-name="Trazado 649"
       d="m 162.785,392.237 c 0,-1.214 -0.011,-6.385 0,-7.6 a 0.866,0.866 0 0 1 1.284,-0.838 1.083,1.083 0 0 1 0.491,0.758 c 0.04,1.937 0.027,7.835 0.016,9.774 a 0.8,0.8 0 0 1 -0.608,0.8 0.93,0.93 0 0 1 -0.974,-0.25 q -1.016,-0.937 -2.037,-1.868 c -0.507,-0.461 -1,-0.5 -1.388,-0.127 -0.355,0.34 -0.3,0.817 0.17,1.246 q 2.466,2.275 4.936,4.546 a 0.954,0.954 0 0 0 1.533,0 q 2.49,-2.287 4.971,-4.581 c 0.57,-0.528 0.449,-1.276 -0.26,-1.4 a 1.356,1.356 0 0 0 -0.942,0.292 c -0.7,0.571 -1.352,1.2 -2.01,1.823 a 1,1 0 0 1 -1.092,0.319 0.888,0.888 0 0 1 -0.591,-0.955 c 0,-1.828 0,-7.615 0,-9.443 0,-0.647 0.372,-1.051 0.92,-1.039 0.548,0.012 0.88,0.414 0.881,1.072 0,1.177 0,6.313 0,7.49 l 0.152,0.1 a 7.09,7.09 0 0 1 0.541,-0.6 2.846,2.846 0 0 1 3.82,-0.016 2.268,2.268 0 0 1 -0.09,3.434 q -2.548,2.369 -5.117,4.713 a 2.788,2.788 0 0 1 -3.889,0.027 q -2.615,-2.372 -5.185,-4.785 a 2.244,2.244 0 0 1 -0.032,-3.4 2.839,2.839 0 0 1 3.745,-0.026 c 0.22,0.189 0.409,0.408 0.612,0.613 z"
       transform="translate(-157.531,-383.679)"
       fill="#2e2e2d" />
  </g>
  <g
     id="Grupo_214"
     data-name="Grupo 214"
     transform="translate(80.832202,34.46622)">
    <g
       id="Grupo_211"
       data-name="Grupo 211">
      <g
         id="Grupo_210"
         data-name="Grupo 210"
         transform="translate(0.742,0.743)">
        <circle
           id="Elipse_20"
           data-name="Elipse 20"
           cx="11.176"
           cy="11.176"
           r="11.176"
           transform="translate(0.201,0.2)"
           fill="none" />
        <path
           id="Trazado_650"
           data-name="Trazado 650"
           d="m 166.883,420.052 a 11.377,11.377 0 1 1 11.378,-11.376 11.389,11.389 0 0 1 -11.378,11.376 z m 0,-22.353 a 10.976,10.976 0 1 0 10.976,10.976 10.988,10.988 0 0 0 -10.976,-10.975 z"
           transform="translate(-155.507,-397.298)"
           fill="none" />
      </g>
      <path
         id="Trazado_651"
         data-name="Trazado 651"
         d="m 167.163,396.835 a 12.12,12.12 0 1 0 12.121,12.121 12.133,12.133 0 0 0 -12.121,-12.121 z m 0,22.353 a 10.232,10.232 0 1 1 10.237,-10.232 10.245,10.245 0 0 1 -10.237,10.232 z"
         transform="translate(-155.045,-396.835)"
         fill="#2e2e2d" />
    </g>
    <g
       id="Grupo_213"
       data-name="Grupo 213"
       transform="translate(7.421,3.199)">
      <g
         id="Grupo_212"
         data-name="Grupo 212">
        <path
           id="Trazado_652"
           data-name="Trazado 652"
           d="m 163.782,414.609 a 7.741,7.741 0 0 1 -3.734,-1.366 1.488,1.488 0 0 1 -0.135,-1.811 1.209,1.209 0 0 1 1.674,-0.212 6.3,6.3 0 0 0 2.194,0.848 v -3.889 c -2.194,-0.48 -4.408,-1.173 -4.061,-4.217 0.193,-2.175 2.04,-3.233 4.061,-3.543 v -0.307 a 1.1,1.1 0 1 1 2.177,0 v 0.462 a 5.772,5.772 0 0 1 2.387,0.865 c 1.366,0.982 0,2.869 -1.214,2 a 9.821,9.821 0 0 0 -1.173,-0.462 v 3.5 c 2.021,0.52 4.023,1.385 4.023,3.87 0,2.385 -1.79,3.753 -4.023,4.08 v 0.482 a 1.1,1.1 0 1 1 -2.177,0 z m 0,-11.8 c -1.019,0.173 -1.694,0.636 -1.694,1.657 0,0.846 0.674,1.212 1.694,1.539 z m 2.177,9.26 c 0.848,-0.347 1.541,-0.848 1.541,-1.868 a 1.906,1.906 0 0 0 -1.541,-1.347 z"
           transform="translate(-159.668,-398.828)"
           fill="#2e2e2d" />
      </g>
    </g>
  </g>
</svg>
