<svg id="Icono_Paquete_Landing" xmlns="http://www.w3.org/2000/svg" width="78.913" height="60.874" viewBox="0 0 78.913 60.874">
  <g id="Grupo_219" data-name="Grupo 219" transform="translate(0.791 1.82)">
    <g id="Grupo_216" data-name="Grupo 216">
      <path id="Trazado_653" data-name="Trazado 653" d="M374.915,385.779c.472-3.985,6.494-4.706,9.33-2.529a1.2,1.2,0,1,1-1.315,2.016c-1.521-.965-4.974-1.418-5.407.719-.554,3.371,8.388,1.439,8.242,6.906-.144,5.22-7.706,5.345-10.543,3a1.525,1.525,0,0,1-.287-2.014,1.213,1.213,0,0,1,1.829-.144c1.686,1.15,6.022,2.014,6.331-.905C382.827,389.788,374.279,391.617,374.915,385.779Z" transform="translate(-374.68 -382.043)" fill="#2e2e2d"/>
    </g>
    <g id="Grupo_217" data-name="Grupo 217" transform="translate(13.468 0.47)">
      <path id="Trazado_654" data-name="Trazado 654" d="M383.671,387.645v7.605a1.419,1.419,0,0,1-1.48,1.418,1.276,1.276,0,0,1-1.231-1.418V383.68a1.366,1.366,0,0,1,1.231-1.418,1.7,1.7,0,0,1,1.3.738l4.521,6.106,4.686-6.331a1.333,1.333,0,0,1,2.342.905V395.25a1.277,1.277,0,0,1-1.233,1.418,1.292,1.292,0,0,1-1.315-1.418v-7.605l-3.41,4.317a1.353,1.353,0,0,1-2.344,0Z" transform="translate(-380.96 -382.262)" fill="#2e2e2d"/>
    </g>
    <g id="Grupo_218" data-name="Grupo 218" transform="translate(29.914)">
      <path id="Trazado_655" data-name="Trazado 655" d="M388.864,385.779c.474-3.985,6.494-4.706,9.332-2.529a1.2,1.2,0,1,1-1.317,2.016c-1.521-.965-4.974-1.418-5.4.719-.555,3.371,8.386,1.439,8.242,6.906-.146,5.22-7.708,5.345-10.546,3a1.52,1.52,0,0,1-.285-2.014,1.211,1.211,0,0,1,1.827-.144c1.686,1.15,6.022,2.014,6.329-.905C396.776,389.788,388.227,391.617,388.864,385.779Z" transform="translate(-388.628 -382.043)" fill="#2e2e2d"/>
    </g>
  </g>
  <g id="Grupo_223" data-name="Grupo 223" transform="translate(0 23.171)">
    <g id="Grupo_220" data-name="Grupo 220" transform="translate(0 0.398)">
      <path id="Trazado_656" data-name="Trazado 656" d="M379.9,405.6l-5.428-11.367A1.411,1.411,0,0,1,377,392.978l1.829,4.129,2.363,5.428,2.321-5.428,1.832-4.129a1.375,1.375,0,0,1,2.507,1.128L382.611,405.6C382.139,406.891,380.678,407.2,379.9,405.6Z" transform="translate(-374.311 -392.183)" fill="#2e2e2d"/>
    </g>
    <g id="Grupo_221" data-name="Grupo 221" transform="translate(15.079)">
      <path id="Trazado_657" data-name="Trazado 657" d="M389.091,406.938a7.174,7.174,0,0,1-7.749-7.4c0-5.057,3.946-7.543,7.749-7.543,3.595.184,7.356,2.67,7.356,7.543A7.168,7.168,0,0,1,389.091,406.938Zm-.227-12.27a4.871,4.871,0,1,0,4.892,4.873A4.7,4.7,0,0,0,388.863,394.668Z" transform="translate(-381.342 -391.998)" fill="#2e2e2d"/>
    </g>
    <g id="Grupo_222" data-name="Grupo 222" transform="translate(31.563 0.347)">
      <path id="Trazado_658" data-name="Trazado 658" d="M390.437,406.547a1.274,1.274,0,0,1-1.068-2.136l7.315-9.722h-6.061a1.264,1.264,0,1,1,0-2.529H398.9c1.563,0,2.016,1.482.905,2.672l-7.007,9.1h6.679a1.309,1.309,0,1,1-.165,2.61Z" transform="translate(-389.028 -392.16)" fill="#2e2e2d"/>
    </g>
  </g>
  <g id="Grupo_229" data-name="Grupo 229" transform="translate(1.273 45.565)">
    <g id="Grupo_224" data-name="Grupo 224" transform="translate(0 0.654)">
      <path id="Trazado_659" data-name="Trazado 659" d="M376.323,416.968a1.287,1.287,0,0,1-1.418-1.276V404.02a1.4,1.4,0,0,1,1.418-1.276h4.706c9.392,0,9.188,14.224.184,14.224Zm1.3-11.714v9.207h3.41c5.548,0,5.8-9.207,0-9.207Z" transform="translate(-374.905 -402.744)" fill="#2e2e2d"/>
    </g>
    <g id="Grupo_225" data-name="Grupo 225" transform="translate(13.746 0.542)">
      <path id="Trazado_660" data-name="Trazado 660" d="M382.137,417.027a1.45,1.45,0,0,1-.659-1.973l5.9-11.53a1.391,1.391,0,0,1,2.548,0l5.8,11.53c.841,1.6-1.645,2.876-2.385,1.274l-.9-1.808H384.85l-.886,1.808A1.542,1.542,0,0,1,382.137,417.027Zm8.836-5.222-2.323-5.074-2.529,5.074Z" transform="translate(-381.314 -402.692)" fill="#2e2e2d"/>
    </g>
    <g id="Grupo_226" data-name="Grupo 226" transform="translate(26.52 0.594)">
      <path id="Trazado_661" data-name="Trazado 661" d="M392.209,405.345h-3.6a1.315,1.315,0,1,1,0-2.629h9.722a1.316,1.316,0,1,1,0,2.629h-3.41v10.378a1.357,1.357,0,1,1-2.713,0Z" transform="translate(-387.27 -402.716)" fill="#2e2e2d"/>
    </g>
    <g id="Grupo_227" data-name="Grupo 227" transform="translate(38.935 0.141)">
      <path id="Trazado_662" data-name="Trazado 662" d="M400.808,417.447a7.177,7.177,0,0,1-7.749-7.4c0-5.055,3.946-7.541,7.749-7.541,3.594.184,7.356,2.672,7.356,7.541A7.169,7.169,0,0,1,400.808,417.447Zm-.227-12.27a4.871,4.871,0,1,0,4.89,4.868A4.7,4.7,0,0,0,400.58,405.177Z" transform="translate(-393.059 -402.505)" fill="#2e2e2d"/>
    </g>
    <g id="Grupo_228" data-name="Grupo 228" transform="translate(55.403)">
      <path id="Trazado_663" data-name="Trazado 663" d="M400.973,406.177c.474-3.987,6.5-4.708,9.332-2.529a1.2,1.2,0,1,1-1.315,2.014c-1.521-.965-4.976-1.418-5.407.719-.556,3.374,8.386,1.439,8.242,6.906-.146,5.222-7.708,5.345-10.543,3a1.518,1.518,0,0,1-.287-2.014,1.211,1.211,0,0,1,1.829-.142c1.686,1.15,6.02,2.012,6.329-.905C408.886,410.185,400.336,412.013,400.973,406.177Z" transform="translate(-400.737 -402.439)" fill="#2e2e2d"/>
    </g>
  </g>
  <g id="Grupo_230" data-name="Grupo 230" transform="translate(45.491)">
    <path id="Trazado_664" data-name="Trazado 664" d="M412.227,381.194h-.006a15.944,15.944,0,0,0-9.763,3.116c-5.42,4.034-7.68,9.424-6.722,16.015a24.867,24.867,0,0,0,3.552,9.239A58.785,58.785,0,0,0,411.249,423.5c.836.74,1.149.744,1.881.037l1.122-1.081c1.72-1.654,3.5-3.365,5.128-5.149a40.322,40.322,0,0,0,8.032-12.358,17.813,17.813,0,0,0,1.122-10.874A16.713,16.713,0,0,0,412.227,381.194Zm13.145,23.069a38,38,0,0,1-7.062,11.135c-1.242,1.42-2.578,2.81-3.869,4.152q-.894.93-1.791,1.877l-.33.347-.349-.326c-4.15-3.884-8.819-8.71-11.97-15.034a19.146,19.146,0,0,1-2.288-8.457,14.26,14.26,0,0,1,10.376-14,14.525,14.525,0,0,1,18.324,10.721A16.082,16.082,0,0,1,425.372,404.262Z" transform="translate(-395.522 -381.194)" fill="#2e2e2d"/>
  </g>
  <g id="Grupo_231" data-name="Grupo 231" transform="translate(53.86 11.951)">
    <path id="Trazado_665" data-name="Trazado 665" d="M405.72,403.829a1.606,1.606,0,0,1-1.137-.472l-4.688-4.686a1.608,1.608,0,0,1,2.276-2.273l3.438,3.438,10.376-12.489a1.609,1.609,0,1,1,2.475,2.057l-11.5,13.844a1.615,1.615,0,0,1-1.165.579C405.77,403.829,405.746,403.829,405.72,403.829Z" transform="translate(-399.424 -386.766)" fill="#2e2e2d"/>
  </g>
</svg>
