<svg xmlns="http://www.w3.org/2000/svg" width="60.052" height="60.079" viewBox="0 0 60.052 60.079">
  <g id="Icono_Internet_datos_Landing" data-name="Icono_Internet datos_Landing" transform="translate(-415.977 -478.665)">
    <path id="Trazado_743" data-name="Trazado 743" d="M450.014,489.669c9.581.293,18.018,8.638,18.04,19s-8.405,18.773-18.04,19.071v.655q0,3.6,0,7.2a2.98,2.98,0,0,1-3.18,3.153q-13.856,0-27.714,0a2.974,2.974,0,0,1-3.142-3.127V481.8a2.967,2.967,0,0,1,3.133-3.137q13.886,0,27.777,0a2.971,2.971,0,0,1,3.127,3.14C450.016,484.413,450.014,487.017,450.014,489.669Zm-28.832-9c-.624,0-1.187,0-1.748,0-1.134,0-1.456.318-1.456,1.441V535.3c0,1.125.324,1.445,1.454,1.445q6.474,0,12.95,0,7.163,0,14.325,0c.925,0,1.295-.371,1.306-1.282,0-.4,0-.792,0-1.189v-6.558a18.919,18.919,0,0,1-12.451-5.563,18.517,18.517,0,0,1-5.554-12.487,18.3,18.3,0,0,1,3.544-12.041,18.932,18.932,0,0,1,14.459-7.937c0-2.692.009-5.318-.007-7.945a.991.991,0,0,0-1-1.061c-.726-.033-1.454-.007-2.191-.007-.154.609-.285,1.172-.437,1.732a2.971,2.971,0,0,1-2.928,2.268q-8.447.005-16.891,0a2.974,2.974,0,0,1-2.933-2.264C421.469,481.847,421.336,481.282,421.182,480.667Zm21.57,19.973-.814,7.017h14.046a33.5,33.5,0,0,0-.845-6.97A19.064,19.064,0,0,1,442.751,500.64Zm-.821,9.1.83,7.025a19.142,19.142,0,0,1,12.509,0l.825-7.025Zm-5.421-12.529a16.766,16.766,0,0,0-4.433,10.459h7.745c.364-2.518.726-4.98,1.063-7.445a.591.591,0,0,0-.238-.465C439.313,498.918,437.965,498.1,436.51,497.209Zm.016,23.005c1.366-.858,2.612-1.688,3.91-2.427a.719.719,0,0,0,.426-.911c-.273-1.7-.51-3.407-.735-5.115-.09-.671-.112-1.353-.163-2.019h-7.9A16.907,16.907,0,0,0,436.526,520.215Zm21.63-12.561h7.806a16.9,16.9,0,0,0-4.473-10.476l-4.3,2.782Zm3.36,12.55a16.834,16.834,0,0,0,4.439-10.456h-7.749c-.36,2.487-.717,4.911-1.052,7.336a.657.657,0,0,0,.2.536C458.7,518.479,460.062,519.307,461.516,520.2ZM454.628,498.7a14.607,14.607,0,0,0-2.9-5.56c-1.732-1.9-3.68-1.9-5.421-.011-.027.029-.053.062-.08.093a14.316,14.316,0,0,0-2.78,5.393c-.005.024.046.064.1.135A16.557,16.557,0,0,0,454.628,498.7ZM443.4,518.713c.174.51.311.982.494,1.438a11.257,11.257,0,0,0,3,4.678,2.939,2.939,0,0,0,4.225,0c1.873-1.609,2.729-3.808,3.5-6.116A16.611,16.611,0,0,0,443.4,518.713Zm-20.1-38.027c.1.411.192.75.267,1.092a1.057,1.057,0,0,0,1.172.892c5.5,0,11.01.011,16.513-.022a1.426,1.426,0,0,0,1.022-.538,4.99,4.99,0,0,0,.435-1.425Zm36.663,40.959-3.274-2.129-2.712,5.4A15.456,15.456,0,0,0,459.961,521.645Zm.026-25.913a16.722,16.722,0,0,0-6.019-3.272l2.721,5.443Zm-15.922-3.272a16.587,16.587,0,0,0-6.022,3.277l3.3,2.162Zm-.027,32.444-2.7-5.4-3.277,2.165A15.63,15.63,0,0,0,444.037,524.9Z" transform="translate(0 0)" fill="#2e2e2d"/>
    <path id="Trazado_744" data-name="Trazado 744" d="M439.77,481.185l-1.041,3.881-1.962-.507,1.042-3.9Z" transform="translate(17.232 1.655)" fill="#2e2e2d"/>
    <path id="Trazado_745" data-name="Trazado 745" d="M441.612,486.508l-1.756-1.015,2.015-3.486,1.756,1.013Z" transform="translate(19.792 2.77)" fill="#2e2e2d"/>
    <path id="Trazado_746" data-name="Trazado 746" d="M443.833,488.364l-1.2-1.258,2.776-2.782,1.225,1.233Z" transform="translate(22.092 4.69)" fill="#2e2e2d"/>
    <path id="Trazado_747" data-name="Trazado 747" d="M446.578,493.736l-.516-1.964,3.872-1.046.545,1.955Z" transform="translate(24.936 9.997)" fill="#2e2e2d"/>
    <path id="Trazado_748" data-name="Trazado 748" d="M442.623,504.938l1.233-1.291,2.76,2.754-1.267,1.262Z" transform="translate(22.086 20.706)" fill="#2e2e2d"/>
    <path id="Trazado_749" data-name="Trazado 749" d="M436.767,507.633l1.957-.527,1.048,3.886-1.955.53Z" transform="translate(17.232 23.573)" fill="#2e2e2d"/>
    <path id="Trazado_750" data-name="Trazado 750" d="M445.678,490.989l-1.015-1.754,3.486-2.021,1.015,1.754Z" transform="translate(23.777 7.086)" fill="#2e2e2d"/>
    <path id="Trazado_751" data-name="Trazado 751" d="M446.064,499.774l.507-1.964,3.9,1.041-.525,1.959Z" transform="translate(24.938 15.868)" fill="#2e2e2d"/>
    <path id="Trazado_752" data-name="Trazado 752" d="M445.677,500.9l3.486,2.015-1.006,1.756-3.495-2.01Z" transform="translate(23.776 18.433)" fill="#2e2e2d"/>
    <path id="Trazado_753" data-name="Trazado 753" d="M443.627,509.2l-1.756,1.015-2.017-3.484,1.752-1.022Z" transform="translate(19.791 22.417)" fill="#2e2e2d"/>
    <path id="Trazado_754" data-name="Trazado 754" d="M450.6,494.572v1.95h-3.947v-1.95Z" transform="translate(25.428 13.184)" fill="#2e2e2d"/>
    <path id="Trazado_755" data-name="Trazado 755" d="M420.372,510.181v-1.926h17.95v1.926Z" transform="translate(3.643 24.526)" fill="#2e2e2d"/>
    <path id="Trazado_756" data-name="Trazado 756" d="M420.113,510.186h-1.922v-1.933h1.922Z" transform="translate(1.835 24.524)" fill="#2e2e2d"/>
    <path id="Trazado_757" data-name="Trazado 757" d="M433.231,510.2h-1.9v-1.946h1.9Z" transform="translate(12.726 24.525)" fill="#2e2e2d"/>
  </g>
</svg>
