<svg xmlns="http://www.w3.org/2000/svg" width="90.262" height="63.497" viewBox="0 0 90.262 63.497">
  <g id="Icono_Equipos_Landing" transform="translate(-1045.737 -1102.503)">
    <g id="Grupo_335" data-name="Grupo 335" transform="translate(616.91 632.481)">
      <path id="Trazado_760" data-name="Trazado 760" d="M509.905,506.839H512.4c.015-.234.039-.438.042-.643q.2-11.355.4-22.709a2.855,2.855,0,0,1,2.256-2.866,2.814,2.814,0,0,1,3.137,1.507,3.881,3.881,0,0,1,.319,1.5c.1,3.678.164,7.355.228,11.035.1,5.943.176,11.887.307,17.828.064,2.824-1.957,4.166-4.775,3.409-.975-.263-1.576-1.082-1.968-2.443h-2.418v.811c0,4.53.012,9.059,0,13.587a5.36,5.36,0,0,1-4.414,5.582,5.171,5.171,0,0,1-1.053.083q-16.422.006-32.84,0a5.351,5.351,0,0,1-5.48-5.509q-.006-11.108,0-22.219a5.313,5.313,0,0,1,5.5-5.545c7.031-.033,14.06-.012,21.091-.01,3.987,0,7.975-.025,11.962.023a5.269,5.269,0,0,1,5.207,5.107C509.927,505.83,509.905,506.3,509.905,506.839Zm-21.861-4.609q-8.069,0-16.136,0A3.469,3.469,0,0,0,468.116,506q0,10.9,0,21.794a3.478,3.478,0,0,0,3.753,3.745q16.173.006,32.344,0a3.434,3.434,0,0,0,3.7-3.709q.006-10.932,0-21.863a3.422,3.422,0,0,0-3.734-3.736Q496.111,502.227,488.044,502.23Zm28.757-4.012h-.131c0-3.04.014-6.081-.006-9.121-.012-1.862-.077-3.722-.1-5.584a.863.863,0,1,0-1.723-.033c0,.095,0,.187,0,.282q-.188,10.888-.379,21.776c-.041,2.4-.095,4.81-.075,7.212a1.541,1.541,0,0,0,.549,1.176,1.36,1.36,0,0,0,2.123-1.356Q516.927,505.395,516.8,498.218Zm-6.816,10.7v2.449h2.287v-2.449Z" transform="translate(0 0)" fill="#2e2e2d"/>
      <path id="Trazado_761" data-name="Trazado 761" d="M476.7,508.5a3.2,3.2,0,0,1-3.208-3.162,3.211,3.211,0,0,1,6.422-.07A3.213,3.213,0,0,1,476.7,508.5Zm1.155-3.15a1.158,1.158,0,1,0-1.163,1.149A1.149,1.149,0,0,0,477.855,505.351Z" transform="translate(6.855 20.089)" fill="#2e2e2d"/>
      <path id="Trazado_762" data-name="Trazado 762" d="M472.061,508.5a3.207,3.207,0,0,1-3.2-3.174,3.261,3.261,0,0,1,3.255-3.21,3.224,3.224,0,0,1,3.154,3.16A3.174,3.174,0,0,1,472.061,508.5Zm.079-4.354a1.177,1.177,0,1,0,1.1,1.228A1.169,1.169,0,0,0,472.14,504.149Z" transform="translate(2.54 20.089)" fill="#2e2e2d"/>
      <path id="Trazado_763" data-name="Trazado 763" d="M481.327,508.5a3.143,3.143,0,0,1-3.191-3.154,3.207,3.207,0,0,1,3.216-3.23,3.258,3.258,0,0,1,3.177,3.216A3.2,3.2,0,0,1,481.327,508.5Zm1.151-3.1a1.145,1.145,0,0,0-1.068-1.248,1.175,1.175,0,1,0-.154,2.345A1.158,1.158,0,0,0,482.478,505.4Z" transform="translate(11.181 20.088)" fill="#2e2e2d"/>
      <path id="Trazado_764" data-name="Trazado 764" d="M485.939,508.5a3.13,3.13,0,0,1-3.17-3.189,3.2,3.2,0,0,1,3.187-3.2,3.23,3.23,0,0,1,3.189,3.214A3.183,3.183,0,0,1,485.939,508.5Zm1.2-3.2a1.187,1.187,0,0,0-2.374.017,1.186,1.186,0,0,0,1.225,1.182A1.212,1.212,0,0,0,487.134,505.3Z" transform="translate(15.497 20.088)" fill="#2e2e2d"/>
      <path id="Trazado_765" data-name="Trazado 765" d="M480.616,495.248c-1.791,0-3.581.01-5.372-.006-.819-.006-1.329-.551-1.169-1.229.153-.647.655-.811,1.24-.813,1.367,0,2.733,0,4.1,0,2.167,0,4.334-.006,6.5,0,.829,0,1.244.3,1.312.883.081.688-.369,1.153-1.172,1.159C484.244,495.256,482.43,495.248,480.616,495.248Z" transform="translate(7.372 11.778)" fill="#2e2e2d"/>
      <path id="Trazado_766" data-name="Trazado 766" d="M479.652,495.062c1.084,0,2.165-.01,3.247,0,.726.01,1.136.369,1.153.96a1.029,1.029,0,0,1-1.161,1.037q-3.283.015-6.563,0a1.052,1.052,0,0,1-1.165-.973c-.025-.587.444-1.014,1.172-1.024C477.443,495.052,478.548,495.062,479.652,495.062Z" transform="translate(8.411 13.511)" fill="#2e2e2d"/>
    </g>
    <g id="Grupo_339" data-name="Grupo 339" transform="translate(704.68 730.366)">
      <g id="Grupo_338" data-name="Grupo 338" transform="translate(341.057 375.555)">
        <g id="Grupo_336" data-name="Grupo 336">
          <path id="Trazado_767" data-name="Trazado 767" d="M369.324,435.634h-23.77a4.5,4.5,0,0,1-4.5-4.494V380.051a4.5,4.5,0,0,1,4.5-4.5h3.477l.917,3.5a1.5,1.5,0,0,0,1.453,1.125h12.642a1.494,1.494,0,0,0,1.443-1.08l1.046-3.54h2.793a4.5,4.5,0,0,1,4.5,4.5V431.14A4.5,4.5,0,0,1,369.324,435.634Zm-23.77-58.361a2.781,2.781,0,0,0-2.778,2.778V431.14a2.78,2.78,0,0,0,2.778,2.777h23.77a2.781,2.781,0,0,0,2.778-2.777V380.051a2.782,2.782,0,0,0-2.778-2.778h-1.508l-.683,2.312a3.241,3.241,0,0,1-3.09,2.309H351.4a3.22,3.22,0,0,1-3.116-2.408l-.579-2.212Z" transform="translate(-341.057 -375.555)" fill="#2e2e2d"/>
        </g>
        <g id="Grupo_337" data-name="Grupo 337" transform="translate(6.198)">
          <path id="Trazado_768" data-name="Trazado 768" d="M362.016,381.893H349.374a3.22,3.22,0,0,1-3.116-2.408l-1.03-3.93H366.3l-1.191,4.029A3.241,3.241,0,0,1,362.016,381.893Zm-14.561-4.621.467,1.778a1.5,1.5,0,0,0,1.453,1.125h12.642a1.494,1.494,0,0,0,1.443-1.08l.538-1.823Z" transform="translate(-345.229 -375.555)" fill="#2e2e2d"/>
        </g>
      </g>
    </g>
    <g id="Grupo_340" data-name="Grupo 340" transform="translate(587.927 624.597)">
      <path id="Trazado_769" data-name="Trazado 769" d="M532.5,487.35a3.643,3.643,0,0,1-1.958,2.261,9.714,9.714,0,0,1-4.88,1.519,18.051,18.051,0,0,1-2.271-.249v8.133a2.62,2.62,0,0,1-.018.366.435.435,0,0,1-.462.4.457.457,0,0,1-.46-.414,1.241,1.241,0,0,1-.009-.244V488.634c0-.061,0-.123,0-.184a.482.482,0,0,1,.478-.465.449.449,0,0,1,.456.449,10.34,10.34,0,0,1,.007,1.042.346.346,0,0,0,.276.4,6.229,6.229,0,0,0,3.884.034,9.783,9.783,0,0,0,3.322-1.655,1.711,1.711,0,0,0,.708-1.426q.009-2.055,0-4.11a1.691,1.691,0,0,0-.71-1.424,9.145,9.145,0,0,0-5.1-1.937,5.359,5.359,0,0,0-5.6,4.841c-.1,1.034-.044,2.083-.059,3.125a1.639,1.639,0,0,1-.01.306.435.435,0,0,1-.461.368c-.223,0-.44-.134-.434-.356.043-1.646-.27-3.327.325-4.924a6.187,6.187,0,0,1,5.375-4.265,8.674,8.674,0,0,1,4.92,1.083c.247.121.486.261.723.4A3.627,3.627,0,0,1,532.5,482.2Z" fill="#2e2e2d" stroke="#2e2e2d" stroke-width="1"/>
      <path id="Trazado_770" data-name="Trazado 770" d="M510.184,490.811c-3.119.846-5.758-.124-8.183-1.939a2.34,2.34,0,0,1-.925-1.951q-.006-2.163,0-4.326a2.307,2.307,0,0,1,.83-1.842,9.754,9.754,0,0,1,5.932-2.342,6.324,6.324,0,0,1,6.5,5.54,5.434,5.434,0,0,1,.053.732q0,10,0,20a1.478,1.478,0,0,1-1.56,1.556,9.934,9.934,0,0,1-1.466-.054,1.383,1.383,0,0,1-1.158-1.257,3.287,3.287,0,0,1-.023-.4q0-3.114,0-6.228c0-.5.138-.715.464-.721s.484.217.484.73q0,3.129,0,6.259c0,.56.163.723.733.727.337,0,.675.009,1.012-.005a.558.558,0,0,0,.592-.6c0-.051,0-.1,0-.154q0-9.832,0-19.667a5.443,5.443,0,0,0-4.047-5.353,6.535,6.535,0,0,0-3.767.225,9.812,9.812,0,0,0-2.943,1.539A1.709,1.709,0,0,0,502,482.71q-.009,2.055,0,4.111a1.7,1.7,0,0,0,.73,1.445,8.721,8.721,0,0,0,5.779,1.9,7.516,7.516,0,0,0,1.483-.339.377.377,0,0,0,.185-.285c.024-.336,0-.675.012-1.012a.478.478,0,1,1,.944.009q0,3.789,0,7.578a.5.5,0,0,1-.487.553c-.275-.009-.457-.226-.458-.581q-.006-2.454,0-4.909Z" fill="#2e2e2d" stroke="#2e2e2d" stroke-width="1"/>
      <path id="Trazado_771" data-name="Trazado 771" d="M519.179,497.138v-7.547a1.954,1.954,0,0,1,.005-.276.459.459,0,0,1,.912.007,2.626,2.626,0,0,1,0,.307v14.848c0,.672.154.824.834.825.286,0,.573.005.859,0,.467-.011.645-.193.645-.659,0-1.1,0-2.208,0-3.313,0-.12-.007-.278.061-.35.115-.122.3-.273.433-.258.151.018.307.19.413.331.062.083.037.236.037.358q0,1.564,0,3.129a1.528,1.528,0,0,1-1.7,1.708c-.347,0-.7.008-1.043,0a1.477,1.477,0,0,1-1.464-1.5Q519.176,500.942,519.179,497.138Z" fill="#2e2e2d" stroke="#2e2e2d" stroke-width="1"/>
      <path id="Trazado_772" data-name="Trazado 772" d="M524.843,481.724c-.062.069-.153.246-.3.315a4.055,4.055,0,0,0-1.373,1.092.468.468,0,1,1-.729-.58,4.29,4.29,0,0,1,1.709-1.346C524.517,481.052,524.851,481.261,524.843,481.724Z" fill="#2e2e2d" stroke="#2e2e2d" stroke-width="1"/>
      <path id="Trazado_773" data-name="Trazado 773" d="M511.311,482.929c-.112.125-.2.3-.338.353a.713.713,0,0,1-.451-.037c-.085-.027-.133-.151-.213-.214-.414-.325-.821-.662-1.255-.959-.269-.184-.4-.4-.292-.653a.477.477,0,0,1,.679-.206,4.356,4.356,0,0,1,1.686,1.341A2.3,2.3,0,0,1,511.311,482.929Z" fill="#2e2e2d" stroke="#2e2e2d" stroke-width="1"/>
      <path id="Trazado_774" data-name="Trazado 774" d="M504.877,484.657c0,.184.011.369,0,.551a.444.444,0,0,1-.473.42.415.415,0,0,1-.439-.417c-.016-.367-.014-.735,0-1.1a.43.43,0,0,1,.437-.426.457.457,0,0,1,.476.424C504.889,484.289,504.877,484.474,504.877,484.657Z" fill="#2e2e2d" stroke="#2e2e2d" stroke-width="1"/>
      <path id="Trazado_775" data-name="Trazado 775" d="M528.694,484.658c0-.173-.008-.347,0-.52a.469.469,0,0,1,.477-.458.457.457,0,0,1,.44.459q.017.52,0,1.041a.443.443,0,0,1-.442.45.458.458,0,0,1-.477-.452c0-.02,0-.04,0-.061C528.693,484.964,528.693,484.811,528.694,484.658Z" fill="#2e2e2d" stroke="#2e2e2d" stroke-width="1"/>
    </g>
  </g>
</svg>
