<svg id="Icono_Linea_fija_Landing" data-name="Icono_Linea fija_Landing" xmlns="http://www.w3.org/2000/svg" width="66.883" height="60.253" viewBox="0 0 66.883 60.253">
  <g id="Grupo_202" data-name="Grupo 202" transform="translate(39.017)">
    <g id="Grupo_200" data-name="Grupo 200">
      <path id="Trazado_643" data-name="Trazado 643" d="M303.449,475.2h0A13.84,13.84,0,0,0,289.7,491.153a20.774,20.774,0,0,0,2.96,7.7,49.075,49.075,0,0,0,9.973,11.622c.7.618.96.621,1.57.031l.934-.9c1.433-1.379,2.917-2.806,4.276-4.292a33.639,33.639,0,0,0,6.7-10.3,14.867,14.867,0,0,0,.936-9.066A13.938,13.938,0,0,0,303.449,475.2Zm10.96,19.235a31.665,31.665,0,0,1-5.888,9.283c-1.035,1.185-2.149,2.344-3.226,3.464q-.744.773-1.493,1.563l-.274.291-.292-.273c-3.461-3.239-7.353-7.26-9.98-12.535a15.965,15.965,0,0,1-1.909-7.05A11.9,11.9,0,0,1,300,477.507a12.114,12.114,0,0,1,15.277,8.939A13.4,13.4,0,0,1,314.409,494.435Z" transform="translate(-289.522 -475.2)" fill="#2e2e2d"/>
    </g>
    <g id="Grupo_201" data-name="Grupo 201" transform="translate(8.946 6.276)">
      <path id="Trazado_644" data-name="Trazado 644" d="M299.209,494.892a7.731,7.731,0,0,1-3.734-1.368,1.488,1.488,0,0,1-.135-1.811,1.21,1.21,0,0,1,1.674-.21,6.345,6.345,0,0,0,2.194.848v-3.889c-2.194-.482-4.408-1.173-4.061-4.217.193-2.175,2.042-3.233,4.061-3.543V480.4a1.1,1.1,0,1,1,2.177,0v.462a5.74,5.74,0,0,1,2.387.865c1.368.982,0,2.868-1.214,2a9.841,9.841,0,0,0-1.173-.462v3.5c2.023.522,4.024,1.387,4.024,3.872,0,2.385-1.791,3.751-4.024,4.081v.48a1.1,1.1,0,1,1-2.177,0Zm0-11.8c-1.018.175-1.692.637-1.692,1.658,0,.846.674,1.212,1.692,1.539Zm2.177,9.262c.848-.347,1.541-.848,1.541-1.868a1.906,1.906,0,0,0-1.541-1.347Z" transform="translate(-295.095 -479.11)" fill="#2e2e2d"/>
    </g>
  </g>
  <g id="Grupo_203" data-name="Grupo 203" transform="translate(0 3.502)">
    <path id="Trazado_645" data-name="Trazado 645" d="M261.271,532.694q1.586-3.181,3.171-6.362c.056-.115.111-.232.169-.347a1.1,1.1,0,0,1,1.037-.688,1.126,1.126,0,0,1,1.023.713q.961,1.954,1.934,3.9c.087.175.179.35.3.591.687-1.389,1.353-2.717,2.005-4.055.271-.556.515-1.146,1.249-1.152s.988.579,1.259,1.136c.652,1.336,1.315,2.666,2.017,4.084.762-1.539,1.484-2.993,2.2-4.452a1.172,1.172,0,0,1,1.047-.767,1.145,1.145,0,0,1,1.093.779c.038.085.079.166.12.248q.881,1.781,1.761,3.56c.087.174.185.34.325.6.349-.7.661-1.313.966-1.931q.623-1.26,1.24-2.522a1.116,1.116,0,0,1,2.09-.013c.459.941.916,1.883,1.4,2.814a5.326,5.326,0,0,0,4.942,3.082c2.3.039,4.6.025,6.9.006a5.462,5.462,0,0,0,5.431-4.471,1.557,1.557,0,0,0,.019-.266c-1.1-.178-2.193-.283-3.247-.538a22.049,22.049,0,0,1-5.923-2.793,68.311,68.311,0,0,1-26.151-28.128,13,13,0,0,1,2.322-15.113c.731-.75,1.464-1.5,2.208-2.233a3.087,3.087,0,0,1,4.548.013q4.293,4.315,8.561,8.655a3.152,3.152,0,0,1,.036,4.56c-1.127,1.183-2.295,2.328-3.442,3.492a2.2,2.2,0,0,0-.312,3.248c.977,1.378,2.032,2.7,3.015,4.075a1.613,1.613,0,0,1,.352,1.084,1.582,1.582,0,0,1-.746.845.826.826,0,0,1-1.083-.276c-1.311-1.744-2.692-3.451-3.847-5.3a4.126,4.126,0,0,1,.759-4.949c1.168-1.219,2.371-2.407,3.556-3.61.651-.662.652-1.071-.006-1.737q-4.122-4.177-8.25-8.345c-.674-.681-1.091-.693-1.747.015a31.026,31.026,0,0,0-3.323,3.732,10.193,10.193,0,0,0-.694,10.658,66.536,66.536,0,0,0,13.643,18.5,60.8,60.8,0,0,0,14.735,10.534,10.854,10.854,0,0,0,12.737-1.944c.694-.681,1.373-1.378,2.053-2.076.6-.616.606-1.059.013-1.656q-4.2-4.216-8.4-8.423c-.651-.651-1.053-.639-1.712.028-1.1,1.107-2.193,2.221-3.295,3.327a4.3,4.3,0,0,1-5.9.6c-1.013-.69-1.991-1.434-2.969-2.173a1.129,1.129,0,0,1-.358-1.709c.443-.556,1.044-.559,1.737-.041.953.713,1.905,1.428,2.883,2.1a2.078,2.078,0,0,0,2.959-.3c1.142-1.142,2.273-2.3,3.411-3.445a3.119,3.119,0,0,1,4.783-.006q4.165,4.17,8.329,8.342a3.227,3.227,0,0,1,.016,5c-.889.9-1.761,1.826-2.7,2.672a12.372,12.372,0,0,1-5.812,2.91.554.554,0,0,0-.515.563,7.648,7.648,0,0,1-5.9,6.619c-.229.055-.456.117-.684.175h-9.095a.756.756,0,0,0-.19-.095,7.544,7.544,0,0,1-5.678-4.294c-.123-.241-.244-.483-.407-.808-.736,1.485-1.408,2.887-2.129,4.264a5.43,5.43,0,0,1-.8.933h-.767a9.356,9.356,0,0,1-.808-1.132c-.682-1.31-1.323-2.642-2.015-4.042-.141.254-.242.422-.33.6-.58,1.168-1.138,2.35-1.744,3.5a8.083,8.083,0,0,1-.8,1.072h-.767a6.264,6.264,0,0,1-.811-1c-.713-1.365-1.379-2.757-2.1-4.207-.717,1.447-1.383,2.837-2.1,4.2a6.327,6.327,0,0,1-.8,1H268.5a7.59,7.59,0,0,1-.8-1.063c-.63-1.2-1.213-2.424-1.816-3.639-.071-.14-.156-.271-.267-.462-.724,1.463-1.395,2.865-2.116,4.24a5.164,5.164,0,0,1-.8.925h-1.425Z" transform="translate(-261.271 -477.381)" fill="#2e2e2d"/>
    <path id="Trazado_646" data-name="Trazado 646" d="M282.394,498.043a1.218,1.218,0,1,1-1.252-1.2A1.2,1.2,0,0,1,282.394,498.043Z" transform="translate(-253.125 -468.571)" fill="#2e2e2d"/>
  </g>
</svg>
