<svg id="icono__internet_Landing" data-name="icono_ internet_Landing" xmlns="http://www.w3.org/2000/svg" width="61.671" height="61.453" viewBox="0 0 61.671 61.453">
  <g id="Grupo_235" data-name="Grupo 235">
    <path id="Trazado_666" data-name="Trazado 666" d="M250.452,433.691a28.013,28.013,0,0,0,22.08-22.046.907.907,0,0,0-.135-.7.964.964,0,0,0-.613-.422.867.867,0,0,0-1,.663,30.891,30.891,0,0,1-4.56,10.519,3.7,3.7,0,0,1-.249.316l-.3.364-4.814-2.34.339-1.519c.231-1.034.461-2.056.671-3.084a1.035,1.035,0,0,0-.806-1.3c-.188-.045-.69-.175-1.027.807-.031.087-.053.173-.077.26l-.055.193-1.194,3.925-.382-.112a47.045,47.045,0,0,0-12.15-1.907l-.392-.01v-9.859l6.292-.061c.6-.008.907-.274.931-.814.029-.641-.238-.944-.867-.986-.355-.023-.71-.014-1.064,0-.185,0-.372.008-.557.008h-4.78l0-25.9c0-.186,0-.369-.011-.552-.063-.754-.369-.891-.854-.893a36.4,36.4,0,0,0-4.262.276,26.394,26.394,0,0,0-13.951,6.339,28.177,28.177,0,0,0-9.606,16.449c-.756,6.827-.292,9.1-.067,10.2l.058.3a27.162,27.162,0,0,0,21.536,21.791c6.927,1.461,9.514.734,11.062.3C249.946,433.811,250.206,433.739,250.452,433.691Zm-25.1-44.875a25.857,25.857,0,0,1,8.8-6.387l1.661-.732-1.2,1.364a29.9,29.9,0,0,0-4.851,7.816l-.16.364-4.634-2.011Zm5.88,4.925a42.706,42.706,0,0,0,12.253,1.933l.4.006v9.992H228.817l.014-.416a39.455,39.455,0,0,1,1.9-11.262l.125-.372Zm-12.739,11.6c.067-4.824,2.379-11.264,5.151-14.359l.2-.225.271.133c.724.353,1.486.663,2.223.963.756.308,1.539.626,2.3,1l.308.149-.1.326a46.23,46.23,0,0,0-1.867,12.029l-.013.39h-8.487Zm5.806,17.388-.287.124-.191-.25a26.038,26.038,0,0,1-5.4-14.513l-.031-.43h8.63l.026.372a42.867,42.867,0,0,0,2.342,11.964l.125.339-.324.161C227.637,421.254,226.13,421.942,224.3,422.726Zm10.472,8.116a25.121,25.121,0,0,1-9.291-6.4l-.38-.4.5-.236c.7-.334,1.358-.639,2.018-.945s1.321-.613,2.021-.945l.384-.183.161.393a24.834,24.834,0,0,0,5.028,8.066l1.242,1.311Zm9.108,1.809-.43-.03a9.328,9.328,0,0,1-2.711-.6,15.343,15.343,0,0,1-6.788-6.28,35.872,35.872,0,0,1-1.976-3.79l-.364-.769.435-.141a40.682,40.682,0,0,1,11.426-2.161l.414-.014Zm0-15.347-.385.016a39.975,39.975,0,0,0-12.076,2.178l-.384.138-.132-.385A38.409,38.409,0,0,1,228.83,408l-.016-.417h15.075Zm0-23.491-.406,0a38.87,38.87,0,0,1-11.5-1.862l-.416-.133.321-.772c.1-.242.191-.467.294-.687,1.769-3.8,3.661-6.318,6.135-8.158a10.779,10.779,0,0,1,4.464-1.987,2.957,2.957,0,0,1,.339-.055c.083-.006.165-.006.26,0h.512Zm15.993,28.329.162-.38,4.535,2.088-.369.406a25.4,25.4,0,0,1-8.522,6.233l-1.6.713,1.13-1.339A29.744,29.744,0,0,0,259.886,422.141Zm-14.107,10.6V432.3c0-2.178,0-4.323.006-6.472s.008-4.32.008-6.525v-.414l.416.013a41.46,41.46,0,0,1,11.484,1.976l.4.128-.144.392c-1.848,5.058-6.3,10.753-11.723,11.3Z" transform="translate(-216.648 -373.009)" fill="#2e2e2d"/>
    <path id="Trazado_667" data-name="Trazado 667" d="M251.635,374.982h0a13.84,13.84,0,0,0-13.744,15.953,20.768,20.768,0,0,0,2.96,7.7,49.083,49.083,0,0,0,9.973,11.623c.7.618.96.621,1.57.03l.934-.9c1.433-1.379,2.917-2.806,4.276-4.294a33.622,33.622,0,0,0,6.7-10.3,14.863,14.863,0,0,0,.936-9.065A13.937,13.937,0,0,0,251.635,374.982Zm10.96,19.234a31.65,31.65,0,0,1-5.888,9.285c-1.035,1.185-2.149,2.344-3.226,3.462q-.744.775-1.493,1.563l-.275.292-.292-.273c-3.461-3.239-7.353-7.262-9.98-12.535a15.97,15.97,0,0,1-1.909-7.05,11.893,11.893,0,0,1,8.652-11.672,12.114,12.114,0,0,1,15.277,8.939A13.4,13.4,0,0,1,262.6,394.216Z" transform="translate(-203.903 -374.982)" fill="#2e2e2d"/>
  </g>
  <g id="Grupo_236" data-name="Grupo 236" transform="translate(42.752 6.276)">
    <path id="Trazado_668" data-name="Trazado 668" d="M247.4,394.675a7.765,7.765,0,0,1-3.734-1.368,1.488,1.488,0,0,1-.135-1.811,1.211,1.211,0,0,1,1.674-.212,6.344,6.344,0,0,0,2.194.849v-3.889c-2.194-.482-4.408-1.175-4.061-4.217.193-2.177,2.042-3.234,4.061-3.543v-.308a1.1,1.1,0,1,1,2.177,0v.462a5.741,5.741,0,0,1,2.387.867c1.368.982,0,2.869-1.214,2a9.8,9.8,0,0,0-1.173-.464v3.5c2.023.52,4.024,1.385,4.024,3.87,0,2.387-1.791,3.753-4.024,4.08v.482a1.1,1.1,0,1,1-2.177,0Zm0-11.8c-1.018.173-1.692.637-1.692,1.657,0,.848.674,1.212,1.692,1.539Zm2.177,9.262c.848-.347,1.541-.849,1.541-1.868a1.9,1.9,0,0,0-1.541-1.347Z" transform="translate(-243.281 -378.892)" fill="#2e2e2d"/>
  </g>
</svg>
