<svg xmlns="http://www.w3.org/2000/svg" width="230.03" height="55.605" viewBox="0 0 230.03 55.605">
  <g id="Logo_Comremit_dris" data-name="Logo Comremit_dris" transform="translate(-377 -5370.396)">
    <g id="Comremit_logo" data-name="Comremit logo" transform="translate(377 5370.396)">
      <g id="Grupo_129" data-name="Grupo 129" transform="translate(39.022 9.86)">
        <ellipse id="Elipse_16" data-name="Elipse 16" cx="5.942" cy="6.115" rx="5.942" ry="6.115" fill="#acacac"/>
      </g>
      <g id="Grupo_131" data-name="Grupo 131" transform="translate(28.407)">
        <g id="Grupo_130" data-name="Grupo 130">
          <path id="Trazado_501" data-name="Trazado 501" d="M510.216,540.3a1.885,1.885,0,0,1-.588-.095l-5.947-1.982a.785.785,0,0,0-.617.056,16,16,0,1,1,6.982-6.956.8.8,0,0,0-.056.619l1.974,5.924a1.851,1.851,0,0,1-1.749,2.434Zm-6.774-3.148a1.776,1.776,0,0,1,.567.093l5.945,1.98a.814.814,0,0,0,1.031-1.033l-1.974-5.924a1.824,1.824,0,0,1,.118-1.415,14.937,14.937,0,1,0-27.95-3.919h0a14.932,14.932,0,0,0,21.42,10.423A1.869,1.869,0,0,1,503.441,537.151Z" transform="translate(-479.871 -508.067)" fill="#acacac"/>
        </g>
      </g>
      <g id="Grupo_139" data-name="Grupo 139" transform="translate(0 1.588)">
        <g id="Grupo_132" data-name="Grupo 132">
          <path id="Trazado_502" data-name="Trazado 502" d="M466.1,523.905v-.08a14.807,14.807,0,0,1,15.192-14.988c5.887,0,9.674,2.471,12.226,6.013l-6.011,4.652c-1.646-2.059-3.54-3.377-6.3-3.377-4.035,0-6.875,3.418-6.875,7.618v.083c0,4.321,2.84,7.7,6.875,7.7,3.005,0,4.775-1.4,6.5-3.5l6.011,4.282a15.172,15.172,0,0,1-27.624-8.4Z" transform="translate(-466.1 -508.837)" fill="#acacac"/>
        </g>
        <g id="Grupo_133" data-name="Grupo 133" transform="translate(64.411 0.578)">
          <path id="Trazado_503" data-name="Trazado 503" d="M497.326,509.117h8.439l6.875,11.157,6.875-11.157h8.441v28.819H520.01V521.386l-7.37,11.279h-.165l-7.327-11.2v16.467h-7.822Z" transform="translate(-497.326 -509.117)" fill="#acacac"/>
        </g>
        <g id="Grupo_134" data-name="Grupo 134" transform="translate(100.133 0.578)">
          <path id="Trazado_504" data-name="Trazado 504" d="M514.644,509.117h13.628c4.406,0,7.451,1.153,9.386,3.129a8.936,8.936,0,0,1,2.554,6.71v.082a9.113,9.113,0,0,1-5.928,8.851l6.875,10.046h-9.223l-5.8-8.728h-3.5v8.728h-7.987ZM527.9,522.95c2.717,0,4.282-1.318,4.282-3.416v-.082c0-2.265-1.648-3.418-4.323-3.418h-5.229v6.916Z" transform="translate(-514.644 -509.117)" fill="#acacac"/>
        </g>
        <g id="Grupo_135" data-name="Grupo 135" transform="translate(129.726 0.578)">
          <path id="Trazado_505" data-name="Trazado 505" d="M528.99,509.117h23.177v6.792H536.894v4.365h13.833v6.3H536.894v4.569h15.479v6.793H528.99Z" transform="translate(-528.99 -509.117)" fill="#acacac"/>
        </g>
        <g id="Grupo_136" data-name="Grupo 136" transform="translate(157.176 0.578)">
          <path id="Trazado_506" data-name="Trazado 506" d="M542.3,509.117h8.439l6.875,11.157,6.875-11.157h8.441v28.819h-7.946V521.386l-7.37,11.279h-.165l-7.327-11.2v16.467H542.3Z" transform="translate(-542.298 -509.117)" fill="#acacac"/>
        </g>
        <g id="Grupo_137" data-name="Grupo 137" transform="translate(193.066 0.47)">
          <path id="Trazado_507" data-name="Trazado 507" d="M559.7,509.065h8.026v28.926H559.7Z" transform="translate(-559.697 -509.065)" fill="#acacac"/>
        </g>
        <g id="Grupo_138" data-name="Grupo 138" transform="translate(204.753 0.578)">
          <path id="Trazado_508" data-name="Trazado 508" d="M574.008,516.116h-8.645v-7H590.64v7h-8.645v21.82h-7.987Z" transform="translate(-565.363 -509.117)" fill="#acacac"/>
        </g>
      </g>
      <g id="Grupo_149" data-name="Grupo 149" transform="translate(64.205 36.141)">
        <g id="Grupo_140" data-name="Grupo 140" transform="translate(0 5.635)">
          <path id="Trazado_509" data-name="Trazado 509" d="M497.226,540.4l.6-1.042a7.937,7.937,0,0,0,4.9,1.642c2.871,0,4.02-1.017,4.02-2.556,0-3.967-9.029-1.044-9.029-6.392,0-2.061,1.72-3.732,5.165-3.732a8.369,8.369,0,0,1,4.672,1.331l-.6,1.044a7.016,7.016,0,0,0-4.1-1.225c-2.663,0-3.835,1.1-3.835,2.556,0,4.1,9.027,1.2,9.027,6.392,0,2.219-1.9,3.731-5.376,3.731A8.534,8.534,0,0,1,497.226,540.4Z" transform="translate(-497.226 -528.32)" fill="#acacac"/>
        </g>
        <g id="Grupo_141" data-name="Grupo 141" transform="translate(18.202 5.635)">
          <path id="Trazado_510" data-name="Trazado 510" d="M506.05,535.232a6.812,6.812,0,1,1,6.811,6.916A6.635,6.635,0,0,1,506.05,535.232Zm12.29,0a5.485,5.485,0,1,0-5.479,5.743A5.4,5.4,0,0,0,518.34,535.232Z" transform="translate(-506.05 -528.32)" fill="#acacac"/>
        </g>
        <g id="Grupo_142" data-name="Grupo 142" transform="translate(41.075)">
          <path id="Trazado_511" data-name="Trazado 511" d="M517.139,541.374V525.588h1.3v15.629c0,1.747.786,2.713,2.4,2.713a3.511,3.511,0,0,0,1.306-.26l.1,1.1a4.52,4.52,0,0,1-1.566.287C518.366,545.052,517.139,543.643,517.139,541.374Z" transform="translate(-517.139 -525.588)" fill="#acacac"/>
        </g>
        <g id="Grupo_143" data-name="Grupo 143" transform="translate(53.906 5.741)">
          <path id="Trazado_512" data-name="Trazado 512" d="M535.44,528.371v13.618h-1.252v-2.923a5.367,5.367,0,0,1-5.142,3.028c-3.468,0-5.687-1.955-5.687-5.767v-7.956h1.3v7.853c0,3.08,1.644,4.7,4.488,4.7,3.078,0,4.984-2.061,4.984-5.3v-7.253Z" transform="translate(-523.359 -528.371)" fill="#acacac"/>
        </g>
        <g id="Grupo_144" data-name="Grupo 144" transform="translate(76.569 2.764)">
          <path id="Trazado_513" data-name="Trazado 513" d="M540.841,542.663a4.117,4.117,0,0,1-2.791.965,3.377,3.377,0,0,1-3.7-3.7v-13h1.3V529.9h4.33v1.122h-4.33v8.767c0,1.747.862,2.713,2.531,2.713a3.128,3.128,0,0,0,2.114-.757Z" transform="translate(-534.346 -526.928)" fill="#acacac"/>
        </g>
        <g id="Grupo_145" data-name="Grupo 145" transform="translate(91.485 0.311)">
          <path id="Trazado_514" data-name="Trazado 514" d="M541.577,526.81a1.078,1.078,0,0,1,1.072-1.07,1.057,1.057,0,1,1-1.072,1.07Zm.421,4.359h1.3v13.618H542Z" transform="translate(-541.577 -525.739)" fill="#acacac"/>
        </g>
        <g id="Grupo_146" data-name="Grupo 146" transform="translate(102.438 5.635)">
          <path id="Trazado_515" data-name="Trazado 515" d="M546.887,535.232a6.811,6.811,0,1,1,6.811,6.916A6.635,6.635,0,0,1,546.887,535.232Zm12.29,0a5.485,5.485,0,1,0-5.479,5.743A5.4,5.4,0,0,0,559.177,535.232Z" transform="translate(-546.887 -528.32)" fill="#acacac"/>
        </g>
        <g id="Grupo_147" data-name="Grupo 147" transform="translate(125.311 5.635)">
          <path id="Trazado_516" data-name="Trazado 516" d="M570.158,534.087v7.956h-1.3V534.19c0-3.08-1.644-4.7-4.408-4.7-3.212,0-5.167,2.061-5.167,5.3v7.253h-1.3V528.425h1.252v2.946a5.622,5.622,0,0,1,5.4-3.051C567.943,528.32,570.158,530.276,570.158,534.087Z" transform="translate(-557.976 -528.32)" fill="#acacac"/>
        </g>
        <g id="Grupo_148" data-name="Grupo 148" transform="translate(146.067 5.635)">
          <path id="Trazado_517" data-name="Trazado 517" d="M568.038,540.4l.6-1.042A7.945,7.945,0,0,0,573.545,541c2.869,0,4.018-1.017,4.018-2.556,0-3.967-9.029-1.044-9.029-6.392,0-2.061,1.724-3.732,5.167-3.732a8.366,8.366,0,0,1,4.67,1.331l-.6,1.044a7.012,7.012,0,0,0-4.1-1.225c-2.659,0-3.837,1.1-3.837,2.556,0,4.1,9.029,1.2,9.029,6.392,0,2.219-1.9,3.731-5.374,3.731A8.555,8.555,0,0,1,568.038,540.4Z" transform="translate(-568.038 -528.32)" fill="#acacac"/>
        </g>
      </g>
    </g>
  </g>
</svg>
