<svg xmlns="http://www.w3.org/2000/svg" width="30" height="30" viewBox="0 0 30 30">
  <g id="Icono_Twitter" data-name="Icono Twitter" transform="translate(-431 -5613)">
    <path id="Icono_Twiter" data-name="Icono Twiter" d="M16.494.254a6.99,6.99,0,0,1-2.21.844,3.482,3.482,0,0,0-5.93,3.171A9.881,9.881,0,0,1,1.182.636,3.48,3.48,0,0,0,2.259,5.278,3.486,3.486,0,0,1,.682,4.842v.043a3.482,3.482,0,0,0,2.791,3.41,3.487,3.487,0,0,1-1.572.06,3.483,3.483,0,0,0,3.25,2.415A6.989,6.989,0,0,1,.83,12.258,7.211,7.211,0,0,1,0,12.209a9.858,9.858,0,0,0,5.334,1.562,9.829,9.829,0,0,0,9.9-9.894c0-.15,0-.3-.01-.45a7.013,7.013,0,0,0,1.738-1.8,6.948,6.948,0,0,1-2,.548A3.488,3.488,0,0,0,16.494.254" transform="translate(437.519 5620.5)" fill="none" stroke="#acacac" stroke-width="1"/>
    <g id="Elipse_19" data-name="Elipse 19" transform="translate(431 5613)" fill="none" stroke="#707070" stroke-width="1">
      <circle cx="15" cy="15" r="15" stroke="none"/>
      <circle cx="15" cy="15" r="14.5" fill="none"/>
    </g>
  </g>
</svg>
