<svg id="Icono_cesta" data-name="Icono cesta" xmlns="http://www.w3.org/2000/svg" width="37.251" height="36" viewBox="0 0 37.251 36">
  <g id="cesta">
    <path id="Trazado_524" data-name="Trazado 524" d="M510.546,379.928c-.244.868-.5,1.736-.73,2.607-.85,3.164-1.687,6.331-2.542,9.494a3.754,3.754,0,0,1-3.819,2.827c-1.745,0-3.491.006-5.236,0a.364.364,0,0,0-.426.3,2.681,2.681,0,0,1-2.612,1.8c-2.849,0-5.7,0-8.546.007a1.376,1.376,0,0,0-.611.153c-1.155.612-2.3,1.243-3.446,1.865-.289.157-.6.3-.518.7.064.306.3.414.816.414h23.782a1.572,1.572,0,1,1,.18,3.137c-.085,0-.17,0-.254,0H482.729A3.771,3.771,0,0,1,478.8,400.1a3.578,3.578,0,0,1,1.788-3.658c1.006-.58,2.034-1.124,3.059-1.673.216-.116.3-.21.228-.479q-2.061-7.673-4.1-15.352a2.714,2.714,0,0,0-2.712-2.014c-.679-.007-1.358,0-2.037,0a1.645,1.645,0,0,1-1.7-1.279,1.574,1.574,0,0,1,1.072-1.779,20.159,20.159,0,0,1,3.59-.021,5.674,5.674,0,0,1,4.928,4.17c.12.372.214.752.323,1.142h.491q12.99,0,25.978-.007a1.078,1.078,0,0,1,.841.285Zm-30.282-2.621a11.522,11.522,0,0,1,.587,1.4q2.13,7.906,4.228,15.823c.133.5.066.638-.414.9-1.136.619-2.277,1.232-3.407,1.859a2.541,2.541,0,0,0-1.239,3.145,2.784,2.784,0,0,0,2.781,1.744h23.6c.588,0,.865-.166.869-.519s-.277-.528-.86-.528q-11.818,0-23.636,0a2.416,2.416,0,0,1-.576-.039,1.554,1.554,0,0,1-1.237-1.273,1.517,1.517,0,0,1,.842-1.641q1.983-1.093,3.982-2.157a1.228,1.228,0,0,1,.553-.115c2.121-.007,4.242,0,6.364,0,.812,0,1.624.007,2.436,0a1.524,1.524,0,0,0,1.543-1.045h-9.746c-.581,0-.685-.08-.827-.615q-2.11-7.912-4.221-15.823a4.281,4.281,0,0,0-.917-1.774Zm8.648,2.915c.069.462.128.887.2,1.31.356,2.233.72,4.465,1.07,6.7.109.694.093.7.84.7h2.608l-.2-3.838c-.717,0-1.394,0-2.071,0-.44,0-.668-.173-.677-.506-.011-.351.221-.538.679-.539.662,0,1.326,0,2.012,0l-.209-3.823Zm-.521,3.81-.612-3.809h-4.268l1.015,3.809Zm6.089-.008h3.858l.207-3.8H494.28Zm4.976.021c1.258,0,2.466,0,3.674-.007a.283.283,0,0,0,.2-.174c.2-1.209.387-2.419.576-3.626h-4.258Zm5.584-3.821-.608,3.8h3.839l1.011-3.8Zm-15.867,8.693-.611-3.81h-3.748l1.017,3.81Zm8.91,0,.2-3.8h-3.744l.208,3.8Zm4.444,0,.606-3.8H499.4l-.2,3.8Zm5.457-3.825c-1.163,0-2.286.008-3.409-.007-.271,0-.361.082-.369.333a5.365,5.365,0,0,1-.1.651c-.151.945-.3,1.889-.452,2.848h3.314ZM489.956,393.8c-.169-1.045-.341-2.05-.491-3.058-.115-.767-.1-.768-.912-.768h-2.442l1.023,3.826Zm7.862-.007.206-3.79H494.8l.2,3.79Zm-6.742,0h2.818l-.212-3.8h-3.214ZM502.353,390h-3.218l-.2,3.8h2.81Zm1.125-.013-.606,3.824c.3,0,.528.015.756,0a2.606,2.606,0,0,0,2.43-1.641c.276-.7.425-1.439.637-2.181Zm-23.311-14.133c-.2-.128-.374-.248-.557-.356-1.5-.874-3.154-.656-4.778-.629a.452.452,0,0,0-.423.494.5.5,0,0,0,.426.5,1.852,1.852,0,0,0,.361.023c.895.024,1.8-.015,2.681.092a7.347,7.347,0,0,1,1.543.533Z" transform="translate(-473.295 -373.772)" fill="#2e2e2d"/>
  </g>
  <path id="Trazado_525" data-name="Trazado 525" d="M486.148,411.962a2.726,2.726,0,1,1,2.724-2.711A2.709,2.709,0,0,1,486.148,411.962Zm1.632-2.742a1.635,1.635,0,1,0-1.638,1.651A1.671,1.671,0,0,0,487.78,409.22Z" transform="translate(-473.586 -375.962)" fill="#2e2e2d"/>
  <path id="Trazado_526" data-name="Trazado 526" d="M505.383,411.962a2.726,2.726,0,1,1,2.735-2.7A2.711,2.711,0,0,1,505.383,411.962Zm0-1.091a1.635,1.635,0,1,0-1.623-1.665A1.672,1.672,0,0,0,505.379,410.871Z" transform="translate(-474.139 -375.962)" fill="#2e2e2d"/>
  <path id="Trazado_527" data-name="Trazado 527" d="M486.755,409.3a.545.545,0,1,1-.551-.548A.535.535,0,0,1,486.755,409.3Z" transform="translate(-473.651 -376.026)" fill="#2e2e2d"/>
  <path id="Trazado_528" data-name="Trazado 528" d="M506,409.3a.545.545,0,1,1-.554-.544A.537.537,0,0,1,506,409.3Z" transform="translate(-474.204 -376.026)" fill="#2e2e2d"/>
</svg>
