<svg id="Comremit_logo" data-name="Comremit logo" xmlns="http://www.w3.org/2000/svg" width="261.489" height="63.209" viewBox="0 0 261.489 63.209">
  <g id="Grupo_129" data-name="Grupo 129" transform="translate(44.359 11.209)">
    <ellipse id="Elipse_16" data-name="Elipse 16" cx="6.754" cy="6.952" rx="6.754" ry="6.952" fill="#d9000d"/>
  </g>
  <g id="Grupo_131" data-name="Grupo 131" transform="translate(32.292)">
    <g id="Grupo_130" data-name="Grupo 130">
      <path id="Trazado_501" data-name="Trazado 501" d="M514.365,544.707a2.143,2.143,0,0,1-.668-.108l-6.76-2.253a.892.892,0,0,0-.7.063,18.194,18.194,0,1,1,7.937-7.907.905.905,0,0,0-.063.7l2.244,6.734a2.1,2.1,0,0,1-1.988,2.767Zm-7.7-3.578a2.02,2.02,0,0,1,.645.105l6.758,2.251a.925.925,0,0,0,1.172-1.175L513,535.576a2.073,2.073,0,0,1,.134-1.609,16.979,16.979,0,1,0-31.773-4.455h0a16.974,16.974,0,0,0,24.349,11.849A2.124,2.124,0,0,1,506.665,541.129Z" transform="translate(-479.871 -508.067)" fill="#2e2e2d"/>
    </g>
  </g>
  <g id="Grupo_139" data-name="Grupo 139" transform="translate(0 1.805)">
    <g id="Grupo_132" data-name="Grupo 132">
      <path id="Trazado_502" data-name="Trazado 502" d="M466.1,525.966v-.091a16.832,16.832,0,0,1,17.27-17.038c6.692,0,11,2.809,13.9,6.835l-6.833,5.288c-1.871-2.34-4.024-3.839-7.159-3.839-4.587,0-7.815,3.885-7.815,8.66v.094c0,4.912,3.229,8.751,7.815,8.751,3.416,0,5.428-1.592,7.393-3.979l6.833,4.868c-3.088,4.258-7.253,7.393-14.508,7.393A16.634,16.634,0,0,1,466.1,525.966Z" transform="translate(-466.1 -508.837)" fill="#d9000d"/>
    </g>
    <g id="Grupo_133" data-name="Grupo 133" transform="translate(73.22 0.657)">
      <path id="Trazado_503" data-name="Trazado 503" d="M497.326,509.117h9.593l7.815,12.683,7.815-12.683h9.595v32.76h-9.032V523.064l-8.378,12.822h-.187l-8.329-12.728v18.719h-8.892Z" transform="translate(-497.326 -509.117)" fill="#d9000d"/>
    </g>
    <g id="Grupo_134" data-name="Grupo 134" transform="translate(113.828 0.657)">
      <path id="Trazado_504" data-name="Trazado 504" d="M514.644,509.117h15.492c5.009,0,8.47,1.311,10.669,3.557a10.158,10.158,0,0,1,2.9,7.628v.094a10.359,10.359,0,0,1-6.739,10.062l7.815,11.419H534.3l-6.6-9.921h-3.979v9.921h-9.079Zm15.07,15.724c3.088,0,4.868-1.5,4.868-3.883v-.094c0-2.575-1.873-3.885-4.915-3.885h-5.944v7.862Z" transform="translate(-514.644 -509.117)" fill="#d9000d"/>
    </g>
    <g id="Grupo_135" data-name="Grupo 135" transform="translate(147.467 0.657)">
      <path id="Trazado_505" data-name="Trazado 505" d="M528.99,509.117h26.347v7.721H537.975V521.8H553.7v7.161H537.975v5.194h17.6v7.722H528.99Z" transform="translate(-528.99 -509.117)" fill="#d9000d"/>
    </g>
    <g id="Grupo_136" data-name="Grupo 136" transform="translate(178.672 0.657)">
      <path id="Trazado_506" data-name="Trazado 506" d="M542.3,509.117h9.593l7.815,12.683,7.815-12.683h9.595v32.76h-9.032V523.064l-8.378,12.822h-.187l-8.329-12.728v18.719H542.3Z" transform="translate(-542.298 -509.117)" fill="#d9000d"/>
    </g>
    <g id="Grupo_137" data-name="Grupo 137" transform="translate(219.47 0.535)">
      <path id="Trazado_507" data-name="Trazado 507" d="M559.7,509.065h9.124v32.882H559.7Z" transform="translate(-559.697 -509.065)" fill="#d9000d"/>
    </g>
    <g id="Grupo_138" data-name="Grupo 138" transform="translate(232.756 0.657)">
      <path id="Trazado_508" data-name="Trazado 508" d="M575.19,517.073h-9.827v-7.956H594.1v7.956h-9.827v24.8H575.19Z" transform="translate(-565.363 -509.117)" fill="#d9000d"/>
    </g>
  </g>
  <g id="Grupo_149" data-name="Grupo 149" transform="translate(72.985 41.083)">
    <g id="Grupo_140" data-name="Grupo 140" transform="translate(0 6.406)">
      <path id="Trazado_509" data-name="Trazado 509" d="M497.226,542.051l.682-1.184a9.022,9.022,0,0,0,5.574,1.866c3.264,0,4.57-1.156,4.57-2.905,0-4.509-10.263-1.187-10.263-7.267,0-2.343,1.956-4.242,5.871-4.242a9.514,9.514,0,0,1,5.311,1.512l-.682,1.186a7.976,7.976,0,0,0-4.657-1.393c-3.027,0-4.359,1.245-4.359,2.905,0,4.657,10.261,1.365,10.261,7.267,0,2.523-2.164,4.242-6.111,4.242A9.7,9.7,0,0,1,497.226,542.051Z" transform="translate(-497.226 -528.32)" fill="#2e2e2d"/>
    </g>
    <g id="Grupo_141" data-name="Grupo 141" transform="translate(20.691 6.406)">
      <path id="Trazado_510" data-name="Trazado 510" d="M506.05,536.178a7.744,7.744,0,1,1,7.743,7.862A7.542,7.542,0,0,1,506.05,536.178Zm13.971,0c0-3.883-2.668-6.523-6.228-6.523s-6.228,2.64-6.228,6.523,2.666,6.528,6.228,6.528S520.021,540.065,520.021,536.178Z" transform="translate(-506.05 -528.32)" fill="#2e2e2d"/>
    </g>
    <g id="Grupo_142" data-name="Grupo 142" transform="translate(46.693)">
      <path id="Trazado_511" data-name="Trazado 511" d="M517.139,543.533V525.588h1.482v17.767c0,1.986.893,3.083,2.729,3.083a3.991,3.991,0,0,0,1.484-.3l.117,1.245a5.138,5.138,0,0,1-1.78.326C518.534,547.714,517.139,546.112,517.139,543.533Z" transform="translate(-517.139 -525.588)" fill="#2e2e2d"/>
    </g>
    <g id="Grupo_143" data-name="Grupo 143" transform="translate(61.278 6.526)">
      <path id="Trazado_512" data-name="Trazado 512" d="M537.093,528.371v15.481h-1.423v-3.323a6.1,6.1,0,0,1-5.846,3.442c-3.942,0-6.465-2.223-6.465-6.556v-9.044h1.482V537.3c0,3.5,1.869,5.339,5.1,5.339,3.5,0,5.665-2.343,5.665-6.022v-8.245Z" transform="translate(-523.359 -528.371)" fill="#2e2e2d"/>
    </g>
    <g id="Grupo_144" data-name="Grupo 144" transform="translate(87.04 3.142)">
      <path id="Trazado_513" data-name="Trazado 513" d="M541.73,544.815a4.68,4.68,0,0,1-3.172,1.1,3.839,3.839,0,0,1-4.211-4.211V526.928h1.482v3.384h4.922v1.276h-4.922v9.966c0,1.986.98,3.083,2.877,3.083a3.556,3.556,0,0,0,2.4-.861Z" transform="translate(-534.346 -526.928)" fill="#2e2e2d"/>
    </g>
    <g id="Grupo_145" data-name="Grupo 145" transform="translate(103.996 0.354)">
      <path id="Trazado_514" data-name="Trazado 514" d="M541.577,526.956a1.225,1.225,0,0,1,1.219-1.217,1.2,1.2,0,1,1-1.219,1.217Zm.478,4.955h1.479v15.481h-1.479Z" transform="translate(-541.577 -525.739)" fill="#2e2e2d"/>
    </g>
    <g id="Grupo_146" data-name="Grupo 146" transform="translate(116.447 6.406)">
      <path id="Trazado_515" data-name="Trazado 515" d="M546.887,536.178a7.742,7.742,0,1,1,7.743,7.862A7.542,7.542,0,0,1,546.887,536.178Zm13.97,0a6.143,6.143,0,0,0-6.228-6.523c-3.559,0-6.228,2.64-6.228,6.523s2.668,6.528,6.228,6.528S560.857,540.065,560.857,536.178Z" transform="translate(-546.887 -528.32)" fill="#2e2e2d"/>
    </g>
    <g id="Grupo_147" data-name="Grupo 147" transform="translate(142.449 6.406)">
      <path id="Trazado_516" data-name="Trazado 516" d="M571.825,534.876v9.044h-1.482v-8.927c0-3.5-1.869-5.339-5.011-5.339-3.651,0-5.874,2.343-5.874,6.021v8.245h-1.482V528.44H559.4v3.349c1.036-2.162,3.2-3.468,6.136-3.468C569.306,528.32,571.825,530.543,571.825,534.876Z" transform="translate(-557.976 -528.32)" fill="#2e2e2d"/>
    </g>
    <g id="Grupo_148" data-name="Grupo 148" transform="translate(166.043 6.406)">
      <path id="Trazado_517" data-name="Trazado 517" d="M568.038,542.051l.682-1.184a9.032,9.032,0,0,0,5.578,1.866c3.262,0,4.568-1.156,4.568-2.905,0-4.509-10.263-1.187-10.263-7.267,0-2.343,1.96-4.242,5.874-4.242a9.511,9.511,0,0,1,5.309,1.512l-.682,1.186a7.971,7.971,0,0,0-4.657-1.393c-3.022,0-4.361,1.245-4.361,2.905,0,4.657,10.263,1.365,10.263,7.267,0,2.523-2.164,4.242-6.109,4.242A9.725,9.725,0,0,1,568.038,542.051Z" transform="translate(-568.038 -528.32)" fill="#2e2e2d"/>
    </g>
  </g>
</svg>
