<svg xmlns="http://www.w3.org/2000/svg" width="19.242" height="16" viewBox="0 0 19.242 16">
  <g id="icono_idioma" data-name="icono idioma" transform="translate(-60.423 -476.76)">
    <path id="Trazado_636" data-name="Trazado 636" d="M66.115,483.854a7.046,7.046,0,0,1,5.664-6.943,6.935,6.935,0,0,1,5.755,1.342c.037.028.073.059.109.089.229.195.24.363.029.576q-1.092,1.1-2.188,2.19l-7.147,7.15c-.029.028-.056.057-.086.085a.33.33,0,0,1-.561-.039,6.661,6.661,0,0,1-1.363-2.742c-.127-.557-.18-1.132-.266-1.7Zm3.749-2.822c-.677-.158-1.366-.317-2.053-.481a.155.155,0,0,0-.2.106c-.145.309-.309.609-.432.926a5.725,5.725,0,0,0-.4,1.932h2.692Zm-3.089,3.15A6.4,6.4,0,0,0,68,487.643a.455.455,0,0,0,.056-.037c.436-.435.86-.883,1.312-1.3a.76.76,0,0,0,.3-.837,9.882,9.882,0,0,1-.163-1.288Zm3.365-.655h.248c.5,0,1-.007,1.507,0a.64.64,0,0,0,.421-.168,1.334,1.334,0,0,0,.56-1.368,4.735,4.735,0,0,1-.005-.684c-.745-.066-1.458-.126-2.17-.194-.106-.01-.142.033-.164.124-.046.195-.112.386-.144.583C70.3,482.381,70.226,482.941,70.14,483.527Zm2.72-6.149a1.506,1.506,0,0,0-.3.191,8.823,8.823,0,0,0-1.4,2.067c-.131.265-.243.54-.384.858l2.084.144ZM70.123,480.4a10.308,10.308,0,0,1,1.537-2.784,6.109,6.109,0,0,0-3.552,2.359Zm3.405-3.013v3.246c.509-.031,1.006-.038,1.494-.1.151-.021.3-.188.411-.317.035-.039-.029-.182-.068-.268a9.026,9.026,0,0,0-1.558-2.392A1.186,1.186,0,0,0,73.529,477.387Zm3.448,1.267a6.183,6.183,0,0,0-2.2-1.035L76,479.634Zm-5.555,5.529H70.166l.116,1.143Zm2.951-2.937-.843.037v.809Z" transform="translate(-3.114 0)" fill="#fff"/>
    <path id="Trazado_637" data-name="Trazado 637" d="M76.918,493.937a7.327,7.327,0,0,1-2.9-.343,6.972,6.972,0,0,1-2.171-1.188c-.266-.215-.276-.377-.039-.615q4.689-4.692,9.381-9.382c.228-.228.4-.219.6.036a6.91,6.91,0,0,1,1.517,5.138,7.006,7.006,0,0,1-2.8,4.978,7.493,7.493,0,0,0-.83.842c-.712.766-1.418,1.536-2.127,2.3-.023.025-.046.049-.069.073a.316.316,0,0,1-.367.084.309.309,0,0,1-.2-.316c0-.462,0-.925,0-1.387Zm.643.8c.732-.794,1.421-1.544,2.114-2.289a3.27,3.27,0,0,1,.438-.41,6.43,6.43,0,0,0,1.986-7.872c-.179-.377-.407-.73-.611-1.092L72.5,492.066a.63.63,0,0,0,.064.056,6.336,6.336,0,0,0,4.523,1.131c.333-.04.478.071.478.407S77.56,494.34,77.56,494.736Z" transform="translate(-6.196 -3.13)" fill="#fff"/>
    <path id="Trazado_638" data-name="Trazado 638" d="M97.291,480.2c-.02.058-.022.137-.061.167-.094.073-.209.173-.309.167s-.264-.125-.27-.205a9.014,9.014,0,0,1-.009-1.159c.008-.153.148-.229.308-.229.315,0,.63,0,.945,0a.327.327,0,0,1,.341.321.331.331,0,0,1-.342.321c-.06,0-.119,0-.211,0,.126.184.241.346.349.511a8.8,8.8,0,0,1,1.467,4.441A8.9,8.9,0,0,1,97,491.3c-.023.025-.046.049-.07.072a.327.327,0,1,1-.47-.452c.265-.311.547-.609.789-.937a8.1,8.1,0,0,0,1.57-4.106,8.267,8.267,0,0,0-1.353-5.459c-.044-.067-.092-.132-.139-.2A.143.143,0,0,0,97.291,480.2Z" transform="translate(-19.846 -1.202)" fill="#fff"/>
    <path id="Trazado_639" data-name="Trazado 639" d="M62.607,489.385a1.929,1.929,0,0,1,.039-.225.308.308,0,0,1,.346-.24.28.28,0,0,1,.285.3c-.026.359-.069.719-.13,1.075a.279.279,0,0,1-.333.226c-.384-.05-.769-.1-1.15-.172a.288.288,0,0,1-.227-.352.293.293,0,0,1,.3-.274,2.806,2.806,0,0,1,.314.019c-.044-.071-.079-.129-.116-.184a9.012,9.012,0,0,1,1.1-11.324c.184-.188.356-.212.509-.075s.144.341-.039.526a8.1,8.1,0,0,0-2.038,3.39,8.248,8.248,0,0,0,1,7.106C62.5,489.237,62.54,489.29,62.607,489.385Z" transform="translate(0 -0.725)" fill="#fff"/>
    <path id="Trazado_640" data-name="Trazado 640" d="M81.838,498.993a.643.643,0,1,1-.642-.65A.635.635,0,0,1,81.838,498.993Z" transform="translate(-11.117 -11.986)" fill="#fff"/>
    <path id="Trazado_641" data-name="Trazado 641" d="M86.149,498.994a.643.643,0,1,1-.64-.651A.635.635,0,0,1,86.149,498.994Z" transform="translate(-13.498 -11.986)" fill="#fff"/>
    <path id="Trazado_642" data-name="Trazado 642" d="M90.461,499a.643.643,0,1,1-.639-.653A.634.634,0,0,1,90.461,499Z" transform="translate(-15.88 -11.986)" fill="#fff"/>
  </g>
</svg>
