<svg id="icono_Tienda" data-name="icono Tienda" xmlns="http://www.w3.org/2000/svg" width="38.055" height="38.054" viewBox="0 0 38.055 38.054">
  <path id="Trazado_539" data-name="Trazado 539" d="M577.511,378.689a5.253,5.253,0,0,1,.308-.58,1.648,1.648,0,0,1,1.411-.757q17.3,0,34.593,0a1.72,1.72,0,0,1,1.741,1.743q0,14.064,0,28.128a1.734,1.734,0,0,1-1.771,1.764c-1.634.028-3.27.014-4.9.006-.453,0-.718-.261-.7-.64.013-.362.269-.58.719-.582,1.56-.005,3.121,0,4.682,0,.617,0,.789-.176.789-.8q0-11.37,0-22.74v-.38H578.7v23.1c0,.653.16.816.8.817q4.365,0,8.732,0c.615,0,.931.21.927.612s-.323.616-.931.616c-2.848,0-5.7-.017-8.546.009a2,2,0,0,1-2.174-1.406Zm36.866,3.929c0-1.1,0-2.167,0-3.231,0-.674-.176-.847-.861-.847H593.266q-6.892,0-13.784,0c-.582,0-.781.2-.782.777q0,1.079,0,2.155v1.146Z" transform="translate(-577.511 -377.351)" fill="#2e2e2d"/>
  <path id="Trazado_540" data-name="Trazado 540" d="M599.065,415.4c-2.411-.828-4.612-2.121-6.941-3.133a3.344,3.344,0,0,1-1.472-1.145,1.938,1.938,0,0,1,1.462-3.089,5.5,5.5,0,0,1,2.03.351c.462.123.922.252,1.432.393l-1.9-3.991q-1.457-3.061-2.914-6.121a2.765,2.765,0,0,1-.279-1.9,1.983,1.983,0,0,1,3.224-1,3.492,3.492,0,0,1,.815,1.082c.782,1.569,1.527,3.157,2.273,4.744.115.246.227.3.5.247,1.125-.224,2.255-.432,3.389-.605a3.113,3.113,0,0,1,3.295,1.741c1.006,2.228,2.085,4.424,3.132,6.633a2.172,2.172,0,0,1-1.086,3.123q-2.454,1.18-4.917,2.337c-.3.14-.62.225-.931.335Zm-6.421-6.174c-.7-.006-.972.13-1.11.451a.851.851,0,0,0,.3.993,2.427,2.427,0,0,0,.576.4c1.961.936,3.923,1.87,5.893,2.786a2.8,2.8,0,0,0,2.627-.015c1.48-.765,3-1.444,4.511-2.16a1.018,1.018,0,0,0,.574-1.588q-1.575-3.312-3.154-6.622a1.8,1.8,0,0,0-2.007-1.043c-1.179.206-2.357.419-3.534.632a1.174,1.174,0,0,1-1.534-.793c-.77-1.617-1.532-3.237-2.316-4.847a2.685,2.685,0,0,0-.54-.738.74.74,0,0,0-.9-.1.672.672,0,0,0-.4.729,3.14,3.14,0,0,0,.243.881c.763,1.634,1.546,3.258,2.322,4.886q1.491,3.126,2.981,6.254a.665.665,0,0,1-.039.795.648.648,0,0,1-.747.146c-.661-.2-1.328-.382-1.993-.567S593.1,409.355,592.644,409.231Z" transform="translate(-577.511 -377.351)" fill="#2e2e2d"/>
  <path id="Trazado_541" data-name="Trazado 541" d="M580.958,401.766c0-.9-.005-1.807,0-2.71a1.225,1.225,0,0,1,1.342-1.373q2.785-.015,5.571,0a1.217,1.217,0,0,1,1.347,1.363q.009,2.748,0,5.5a1.25,1.25,0,0,1-1.394,1.4q-2.73.006-5.459,0a1.259,1.259,0,0,1-1.408-1.392C580.953,403.623,580.958,402.7,580.958,401.766Zm1.242,2.919h5.775v-5.763H582.2Z" transform="translate(-577.511 -377.351)" fill="#2e2e2d"/>
  <path id="Trazado_542" data-name="Trazado 542" d="M585.1,386.563c.953,0,1.906,0,2.86,0a1.13,1.13,0,0,1,1.239,1.145q.039,2.97,0,5.941a1.155,1.155,0,0,1-1.245,1.156q-2.859.012-5.719,0a1.2,1.2,0,0,1-1.272-1.219q-.03-2.916,0-5.831a1.167,1.167,0,0,1,1.279-1.193C583.2,386.56,584.152,386.563,585.1,386.563Zm-2.9,7h5.776v-5.789h-5.776Z" transform="translate(-577.511 -377.351)" fill="#2e2e2d"/>
  <path id="Trazado_543" data-name="Trazado 543" d="M606.289,390.684c0,.916,0,1.832,0,2.748a1.225,1.225,0,0,1-1.368,1.376q-2.766,0-5.533,0a1.24,1.24,0,0,1-1.349-1.335q-.008-2.8,0-5.608a1.2,1.2,0,0,1,1.29-1.3q2.841,0,5.682,0a1.16,1.16,0,0,1,1.276,1.26C606.295,388.777,606.288,389.73,606.289,390.684Zm-1.215-2.909h-5.785v5.8h5.785Z" transform="translate(-577.511 -377.351)" fill="#2e2e2d"/>
  <path id="Trazado_544" data-name="Trazado 544" d="M605.089,398.918h-5.81c-.013.179-.012.341-.037.5a.575.575,0,0,1-.6.539.593.593,0,0,1-.6-.548c-.129-1.1.4-1.746,1.43-1.733,1.8.022,3.591,0,5.387.007.992,0,1.424.436,1.427,1.422,0,.62.005,1.239,0,1.858-.005.437-.24.7-.6.689s-.591-.28-.594-.709C605.086,400.275,605.089,399.609,605.089,398.918Z" transform="translate(-577.511 -377.351)" fill="#2e2e2d"/>
  <path id="Trazado_545" data-name="Trazado 545" d="M609.837,386.563c.531,0,1.062,0,1.594,0,.416,0,.658.223.66.582a.587.587,0,0,1-.644.607q-1.613.009-3.225,0a.622.622,0,0,1-.674-.591.6.6,0,0,1,.657-.6C608.749,386.558,609.293,386.563,609.837,386.563Z" transform="translate(-577.511 -377.351)" fill="#2e2e2d"/>
  <path id="Trazado_546" data-name="Trazado 546" d="M609.838,398.9c-.519,0-1.039,0-1.558,0-.436-.005-.735-.261-.732-.617s.272-.59.71-.6q1.575-.014,3.152,0c.448,0,.688.237.681.608s-.262.6-.7.6C610.876,398.9,610.357,398.9,609.838,398.9Z" transform="translate(-577.511 -377.351)" fill="#2e2e2d"/>
  <path id="Trazado_547" data-name="Trazado 547" d="M592.747,386.563c.544,0,1.087,0,1.631,0a.6.6,0,0,1,.656.6.62.62,0,0,1-.641.587q-1.632.01-3.263,0a.6.6,0,0,1-.647-.61.583.583,0,0,1,.633-.578C591.659,386.558,592.2,386.563,592.747,386.563Z" transform="translate(-577.511 -377.351)" fill="#2e2e2d"/>
  <path id="Trazado_548" data-name="Trazado 548" d="M609.136,390.508c-.334,0-.669.01-1,0a.583.583,0,0,1-.586-.591.6.6,0,0,1,.561-.587q1.038-.024,2.077,0a.567.567,0,0,1,.554.617.555.555,0,0,1-.566.562C609.828,390.518,609.482,390.508,609.136,390.508Z" transform="translate(-577.511 -377.351)" fill="#2e2e2d"/>
  <path id="Trazado_549" data-name="Trazado 549" d="M609.14,400.459c.334,0,.668-.009,1,0a.563.563,0,0,1,.6.57.579.579,0,0,1-.6.617q-1,.02-2,0a.609.609,0,0,1-.593-.6.586.586,0,0,1,.591-.588c.333-.014.668,0,1,0Z" transform="translate(-577.511 -377.351)" fill="#2e2e2d"/>
  <path id="Trazado_550" data-name="Trazado 550" d="M592.041,390.51c-.321,0-.642.007-.962,0a.576.576,0,0,1-.6-.574.594.594,0,0,1,.607-.61q.979-.015,1.961,0a.588.588,0,0,1,.613.6.582.582,0,0,1-.624.583C592.707,390.516,592.374,390.51,592.041,390.51Z" transform="translate(-577.511 -377.351)" fill="#2e2e2d"/>
  <path id="Trazado_551" data-name="Trazado 551" d="M601.106,381.2h-9.73a2.7,2.7,0,0,1-.371-.009.612.612,0,0,1-.56-.628.593.593,0,0,1,.569-.575,2.464,2.464,0,0,1,.333-.011h19.608a2.246,2.246,0,0,1,.442.032.531.531,0,0,1,.462.544.537.537,0,0,1-.4.593,1.708,1.708,0,0,1-.474.053Q606.044,381.206,601.106,381.2Z" transform="translate(-577.511 -377.351)" fill="#2e2e2d"/>
  <path id="Trazado_552" data-name="Trazado 552" d="M586.649,380.622a.578.578,0,0,1-.621.544.6.6,0,0,1-.551-.589.587.587,0,0,1,.651-.556A.566.566,0,0,1,586.649,380.622Z" transform="translate(-577.511 -377.351)" fill="#2e2e2d"/>
  <path id="Trazado_553" data-name="Trazado 553" d="M584.128,380.623a.558.558,0,0,1-.612.543.586.586,0,0,1-.544-.59.577.577,0,0,1,.609-.557A.55.55,0,0,1,584.128,380.623Z" transform="translate(-577.511 -377.351)" fill="#2e2e2d"/>
  <path id="Trazado_554" data-name="Trazado 554" d="M581.067,381.168a.56.56,0,0,1-.584-.542.57.57,0,1,1,1.138-.071A.566.566,0,0,1,581.067,381.168Z" transform="translate(-577.511 -377.351)" fill="#2e2e2d"/>
</svg>
