<svg width="56" height="104" viewBox="0 0 56 104" fill="none" xmlns="http://www.w3.org/2000/svg">
              <path
                d="M45.7084 2H10.5323C5.68348 2 1.73828 5.94535 1.73828 10.7943V93.0704C1.73828 97.9194 5.68348 102.06 10.5323 102.06H45.7084C50.5572 102.06 54.5024 97.9194 54.5024 93.0704V76.1923V22.7156V10.7943C54.5024 5.94535 50.5572 2 45.7084 2ZM25.189 10.7943H31.0517C32.6721 10.7943 33.983 12.1053 33.983 13.7258C33.983 15.3463 32.6721 16.6572 31.0517 16.6572H25.189C23.5686 16.6572 22.2577 15.3463 22.2577 13.7258C22.2577 12.1053 23.5686 10.7943 25.189 10.7943ZM50.2031 91.1161H6.16788V19.719H50.2031V91.1161Z"
                stroke="#2E2E2D" stroke-width="2.04056" />
            </svg>