 <svg width="80" height="105" viewBox="0 0 80 105" fill="none" xmlns="http://www.w3.org/2000/svg">
              <path
                d="M44.0443 77.0542C45.1684 77.5229 46.4871 77.2709 47.3655 76.3927L58.6659 65.095H69.5958C74.6379 65.095 78.7402 60.9932 78.7402 55.9519V37.6656C78.7402 32.6243 74.6379 28.5225 69.5958 28.5225H39.1144C34.0724 28.5225 29.97 32.6243 29.97 37.6656V55.9519C29.97 60.9932 34.0724 65.095 39.1144 65.095H42.1625V74.2381C42.1625 75.4699 42.9033 76.5831 44.0443 77.0542ZM44.5799 46.1781C45.7705 44.9874 47.6991 44.9874 48.8895 46.1781L51.307 48.594L58.2966 41.6065C59.4871 40.4159 61.4157 40.4159 62.6063 41.6065C63.797 42.7969 63.797 44.7252 62.6063 45.9156L53.4618 55.0587C52.8671 55.6544 52.087 55.9519 51.307 55.9519C50.5269 55.9519 49.7469 55.6544 49.1521 55.0587L44.5799 50.4871C43.3891 49.2967 43.3891 47.3684 44.5799 46.1781Z"
                stroke="#2E2E2D" stroke-width="2.08538" />
              <path
                d="M45.944 2H10.1663C5.23459 2 1.22192 6.01278 1.22192 10.9447V94.627C1.22192 99.5589 5.23459 103.77 10.1663 103.77H45.944C50.8757 103.77 54.8883 99.5589 54.8883 94.627V77.4603L52.2681 80.0804C49.5826 82.7702 45.6843 83.3426 42.503 82.0133C39.1685 80.6365 36.9995 77.393 36.9995 73.7561V70.4743C30.2042 69.0882 25.0737 63.067 25.0737 55.8668V37.9774C25.0737 29.7574 31.7612 23.0697 39.981 23.0697H54.8883V10.9447C54.8883 6.01278 50.8757 2 45.944 2ZM31.0366 16.9078H25.0737C23.4255 16.9078 22.0922 15.5744 22.0922 13.9262C22.0922 12.278 23.4255 10.9447 25.0737 10.9447H31.0366C32.6848 10.9447 34.0181 12.278 34.0181 13.9262C34.0181 15.5744 32.6848 16.9078 31.0366 16.9078Z"
                stroke="#2E2E2D" stroke-width="2.03993" />
</svg>