<svg id="Icono__recarga" data-name="Icono _recarga" xmlns="http://www.w3.org/2000/svg" width="19.631" height="36" viewBox="0 0 19.631 36">
  <g id="Grupo_162" data-name="Grupo 162">
    <g id="Grupo_160" data-name="Grupo 160">
      <path id="Trazado_529" data-name="Trazado 529" d="M167.995,411.49H153.752a2.7,2.7,0,0,1-2.695-2.694V378.184a2.7,2.7,0,0,1,2.695-2.694h2.083l.549,2.1a.9.9,0,0,0,.871.674h7.575a.9.9,0,0,0,.864-.647l.627-2.122h1.674a2.7,2.7,0,0,1,2.694,2.694V408.8A2.7,2.7,0,0,1,167.995,411.49Zm-14.243-34.971a1.666,1.666,0,0,0-1.665,1.665V408.8a1.665,1.665,0,0,0,1.665,1.664h14.243a1.666,1.666,0,0,0,1.665-1.664V378.184a1.667,1.667,0,0,0-1.665-1.665h-.9l-.41,1.385a1.943,1.943,0,0,1-1.852,1.384h-7.575a1.929,1.929,0,0,1-1.867-1.443l-.347-1.326Z" transform="translate(-151.057 -375.49)" fill="#2e2e2d"/>
    </g>
    <g id="Grupo_161" data-name="Grupo 161" transform="translate(3.714)">
      <path id="Trazado_530" data-name="Trazado 530" d="M165.288,379.289h-7.575a1.929,1.929,0,0,1-1.867-1.443l-.617-2.356h12.624l-.714,2.414A1.943,1.943,0,0,1,165.288,379.289Zm-8.725-2.77.28,1.066a.9.9,0,0,0,.871.674h7.575a.9.9,0,0,0,.864-.647l.322-1.093Z" transform="translate(-155.229 -375.49)" fill="#2e2e2d"/>
    </g>
  </g>
  <g id="Grupo_163" data-name="Grupo 163" transform="translate(5.764 7.29)">
    <path id="Trazado_531" data-name="Trazado 531" d="M160.445,388.425c0-.673-.006-3.541,0-4.213a.48.48,0,0,1,.712-.465.6.6,0,0,1,.272.42c.022,1.075.015,4.345.009,5.421a.446.446,0,0,1-.337.442.516.516,0,0,1-.54-.139q-.564-.519-1.13-1.036c-.281-.256-.552-.278-.77-.07-.2.189-.164.453.094.691q1.367,1.262,2.737,2.521a.529.529,0,0,0,.85,0q1.381-1.269,2.757-2.541c.316-.293.249-.708-.144-.778a.752.752,0,0,0-.523.162c-.391.317-.75.668-1.115,1.011a.556.556,0,0,1-.605.177.492.492,0,0,1-.328-.53c0-1.014,0-4.223,0-5.237,0-.359.207-.583.51-.576s.488.23.489.595c0,.653,0,3.5,0,4.154l.085.058a3.932,3.932,0,0,1,.3-.331,1.578,1.578,0,0,1,2.119-.009,1.258,1.258,0,0,1-.05,1.9q-1.413,1.314-2.838,2.614a1.546,1.546,0,0,1-2.157.015q-1.45-1.315-2.875-2.654a1.244,1.244,0,0,1-.018-1.883,1.574,1.574,0,0,1,2.077-.014c.122.105.227.226.339.34Z" transform="translate(-157.531 -383.679)" fill="#2e2e2d"/>
  </g>
  <g id="Grupo_168" data-name="Grupo 168" transform="translate(3.55 19.002)">
    <g id="Grupo_165" data-name="Grupo 165">
      <g id="Grupo_164" data-name="Grupo 164" transform="translate(0.411 0.412)">
        <circle id="Elipse_17" data-name="Elipse 17" cx="6.198" cy="6.198" r="6.198" transform="translate(0.112 0.111)" fill="#fff"/>
        <path id="Trazado_532" data-name="Trazado 532" d="M161.816,409.917a6.31,6.31,0,1,1,6.31-6.309A6.316,6.316,0,0,1,161.816,409.917Zm0-12.4a6.087,6.087,0,1,0,6.087,6.087A6.094,6.094,0,0,0,161.816,397.521Z" transform="translate(-155.507 -397.298)" fill="#2e2e2d"/>
      </g>
      <path id="Trazado_533" data-name="Trazado 533" d="M161.765,396.835a6.722,6.722,0,1,0,6.722,6.722A6.729,6.729,0,0,0,161.765,396.835Zm0,12.4a5.675,5.675,0,1,1,5.675-5.674A5.682,5.682,0,0,1,161.765,409.231Z" transform="translate(-155.045 -396.835)" fill="#2e2e2d"/>
    </g>
    <g id="Grupo_167" data-name="Grupo 167" transform="translate(4.116 1.774)">
      <g id="Grupo_166" data-name="Grupo 166">
        <path id="Trazado_534" data-name="Trazado 534" d="M161.95,407.58a4.293,4.293,0,0,1-2.071-.758.825.825,0,0,1-.075-1,.67.67,0,0,1,.929-.118,3.494,3.494,0,0,0,1.217.47v-2.157c-1.217-.266-2.445-.651-2.252-2.339a2.33,2.33,0,0,1,2.252-1.965v-.17a.612.612,0,1,1,1.207,0v.256a3.2,3.2,0,0,1,1.324.48c.758.545,0,1.591-.673,1.111a5.446,5.446,0,0,0-.651-.256v1.943c1.121.288,2.231.768,2.231,2.146a2.315,2.315,0,0,1-2.231,2.263v.267a.612.612,0,1,1-1.207,0Zm0-6.545c-.565.1-.939.353-.939.919,0,.469.374.672.939.854Zm1.207,5.136c.47-.192.855-.47.855-1.036a1.057,1.057,0,0,0-.855-.747Z" transform="translate(-159.668 -398.828)" fill="#2e2e2d"/>
      </g>
    </g>
  </g>
</svg>
