<svg xmlns="http://www.w3.org/2000/svg" width="44.969" height="59.851" viewBox="0 0 44.969 59.851">
  <g id="icono_Sim_LAnding" transform="translate(-22.409 -15.439)">
    <g id="Grupo_259" data-name="Grupo 259" transform="translate(22.409 15.439)">
      <path id="Trazado_688" data-name="Trazado 688" d="M353.73,397.524c-3.063-3.032-6.409-6.373-10.524-10.519a2.135,2.135,0,0,0-1.646-.671l-5.263.01c-7.245.026-14.317.036-21.358-.031a5.461,5.461,0,0,0-3.839,1.582,5.4,5.4,0,0,0-1.564,3.911c.054,5.841.041,11.732.033,17.429q-.008,3.487-.008,6.969v4.9c0,6.523,0,13.05,0,19.66a5.6,5.6,0,0,0,.067,1.1,5.166,5.166,0,0,0,5.372,4.3h33.831c3.543,0,5.663-2.108,5.666-5.638l0-15.981q0-12.559,0-25.117A2.47,2.47,0,0,0,353.73,397.524Zm-2.051,43.32a2.273,2.273,0,0,1-2.474,2.472l-17.168.005-17.166-.005c-1.649,0-2.523-.919-2.523-2.66V392.09c0-2.172.8-2.98,2.97-2.98h5.63q9.857,0,19.707-.005a1.469,1.469,0,0,1,1.166.457q2.237,2.26,4.489,4.513,2.5,2.5,4.982,5.005a1.421,1.421,0,0,1,.372.893Q351.694,420.411,351.679,440.844Z" transform="translate(-309.535 -386.313)" fill="#2e2e2d"/>
      <path id="Trazado_689" data-name="Trazado 689" d="M342.684,396.4H313.725c-1.293,0-1.773.472-1.773,1.739q0,12.048,0,24.1c0,1.275.475,1.752,1.752,1.752h29.029c1.251,0,1.762-.513,1.762-1.765V398.2C344.5,396.91,343.987,396.4,342.684,396.4ZM341.6,399.25v21.926h-4.482V399.25Zm-7.438,14.913v7.005h-4.51v-7.005Zm-7.418-.041v7.049h-4.533v-7.049Zm-7.4.008v7.044H314.8v-7.044Zm14.828-14.921v12.018H314.793V406.67h12.88c1.455,0,1.925-.464,1.93-1.9.005-1.693,0-3.385,0-5.093,0-.219,0-.356.059-.41a.361.361,0,0,1,.253-.062c1.032.01,2.064.005,3.127.005Zm-7.41.047V403.8H314.78v-4.541Z" transform="translate(-305.718 -370.368)" fill="#2e2e2d"/>
      <path id="Trazado_690" data-name="Trazado 690" d="M313.307,393.358h14.882a1.344,1.344,0,0,0,0-2.688H313.307a1.344,1.344,0,0,0,0,2.688Z" transform="translate(-305.698 -379.43)" fill="#2e2e2d"/>
      <path id="Trazado_691" data-name="Trazado 691" d="M315.252,391.461h6.187a1.36,1.36,0,0,0,0-2.719h-6.187a1.36,1.36,0,0,0,0,2.719Z" transform="translate(-302.65 -382.476)" fill="#2e2e2d"/>
      <rect id="Rectángulo_663" data-name="Rectángulo 663" width="2.706" height="2.731" rx="0.505" transform="translate(6.274 6.25)" fill="#2e2e2d"/>
    </g>
  </g>
</svg>
